<?xml version="1.0" encoding="UTF-8"?><svg id="a" xmlns="http://www.w3.org/2000/svg" viewBox="0 0 559 518"><rect width="240.74" height="237.35" rx="6.1" ry="6.1" style="fill:#e5e5e5;"/><circle cx="119.17" cy="68.56" r="34.42" style="fill:silver;"/><path d="M130.76,66.68l-15.16-8.75c-1.63-.94-3.68,.24-3.68,2.12v17.51c0,1.89,2.04,3.07,3.68,2.12l15.16-8.75c1.63-.94,1.63-3.3,0-4.25Z" style="fill:none; stroke:#fbfbfb; stroke-miterlimit:10;"/><rect x="18.66" y="17.49" width="202.83" height="202.83" style="fill:none; stroke:silver; stroke-miterlimit:10;"/><circle cx="19.42" cy="218.46" r="3.44" style="fill:#aaa;"/><circle cx="221.49" cy="218.46" r="3.44" style="fill:#aaa;"/><circle cx="221.49" cy="17.49" r="3.44" style="fill:#aaa;"/><circle cx="19.42" cy="17.49" r="3.44" style="fill:#aaa;"/><rect x="40.11" y="118.02" width="16.77" height="5.83" rx="2.91" ry="2.91" style="fill:#727272;"/><rect x="182.4" y="118.02" width="16.77" height="5.83" rx="2.91" ry="2.91" style="fill:#727272;"/><rect x="95.15" y="133.27" width="48.28" height="5.83" rx="2.91" ry="2.91" style="fill:#727272;"/><rect x="86.77" y="179.09" width="64.83" height="16.77" rx="8.38" ry="8.38" style="fill:#727272;"/><rect x="31.07" y="133.27" width="34.85" height="4.51" rx="2.26" ry="2.26" style="fill:#727272;"/><rect x="31.07" y="140.89" width="34.85" height="4.51" rx="2.26" ry="2.26" style="fill:#727272;"/><rect x="173.02" y="133.8" width="34.85" height="4.51" rx="2.26" ry="2.26" style="fill:#727272;"/><rect x="173.02" y="141.43" width="34.85" height="4.51" rx="2.26" ry="2.26" style="fill:#727272;"/><rect x="100.69" y="145.94" width="35.17" height="4.96" rx="2.48" ry="2.48" style="fill:#727272;"/><rect x="305.46" y="17.5" width="196.07" height="202.82" rx="6.1" ry="6.1" style="fill:#e5e5e5;"/><rect x="45.44" y="291.85" width="189.37" height="192.36" rx="6.1" ry="6.1" style="fill:#e5e5e5;"/><rect x="321.4" y="273.74" width="237.6" height="244.26" rx="6.1" ry="6.1" style="fill:#e5e5e5;"/><line x1="86.21" y1="328.77" x2="86.21" y2="448.09" style="fill:none; stroke:#b6b5b7; stroke-miterlimit:10;"/><line x1="104.55" y1="328.77" x2="104.55" y2="448.09" style="fill:none; stroke:#b6b5b7; stroke-miterlimit:10;"/><line x1="122.89" y1="328.77" x2="122.89" y2="448.09" style="fill:none; stroke:#b6b5b7; stroke-miterlimit:10;"/><line x1="141.24" y1="328.77" x2="141.24" y2="448.09" style="fill:none; stroke:#b6b5b7; stroke-miterlimit:10;"/><line x1="159.58" y1="328.77" x2="159.58" y2="448.09" style="fill:none; stroke:#b6b5b7; stroke-miterlimit:10;"/><line x1="177.92" y1="328.77" x2="177.92" y2="448.09" style="fill:none; stroke:#b6b5b7; stroke-miterlimit:10;"/><line x1="196.26" y1="328.77" x2="196.26" y2="448.09" style="fill:none; stroke:#b6b5b7; stroke-miterlimit:10;"/><circle cx="86.29" cy="382.48" r="3.07" style="fill:#f4f4f4; stroke:#727272; stroke-miterlimit:10;"/><circle cx="104.55" cy="412.98" r="3.07" style="fill:#f4f4f4; stroke:#21d6a2; stroke-miterlimit:10;"/><circle cx="122.89" cy="352.48" r="3.07" style="fill:#f4f4f4; stroke:#727272; stroke-miterlimit:10;"/><circle cx="141.24" cy="397.48" r="3.07" style="fill:#f4f4f4; stroke:#727272; stroke-miterlimit:10;"/><circle cx="159.58" cy="367.51" r="3.07" style="fill:#f4f4f4; stroke:#727272; stroke-miterlimit:10;"/><circle cx="177.92" cy="420.45" r="3.07" style="fill:#f4f4f4; stroke:#727272; stroke-miterlimit:10;"/><circle cx="196.26" cy="356.66" r="3.07" style="fill:#f4f4f4; stroke:#727272; stroke-miterlimit:10;"/><circle cx="405" cy="353.46" r="2.52" style="fill:#b6b5b7;"/><circle cx="405" cy="439.55" r="2.52" style="fill:#b6b5b7;"/><circle cx="473.91" cy="353.46" r="2.52" style="fill:#b6b5b7;"/><circle cx="473.91" cy="439.55" r="2.52" style="fill:#b6b5b7;"/><circle cx="438.96" cy="341.8" r="2.52" style="fill:#b6b5b7;"/><circle cx="438.96" cy="451.64" r="2.52" style="fill:#b6b5b7;"/><circle cx="385.73" cy="385.57" r="2.52" style="fill:#b6b5b7;"/><circle cx="491.52" cy="416.41" r="2.52" style="fill:#b6b5b7;"/><circle cx="493.58" cy="384.44" r="2.52" style="fill:#b6b5b7;"/><circle cx="389.06" cy="417.51" r="2.52" style="fill:#b6b5b7;"/><rect x="345.98" y="74.11" width="102.3" height="102.3" style="fill:#727272;"/><rect x="361.81" y="61.36" width="102.09" height="99.78" rx="5.32" ry="5.32" style="fill:silver;"/><rect x="390.43" y="76.97" width="6.7" height="40.64" style="fill:#e5e5e5;"/><rect x="409.51" y="76.97" width="6.7" height="24.14" style="fill:#e5e5e5;"/><rect x="429.75" y="76.97" width="6.7" height="10.74" style="fill:#e5e5e5;"/><rect x="390.43" y="117.61" width="6.7" height="27.27" style="fill:#21d6a2;"/><rect x="409.51" y="101.11" width="6.7" height="43.77" style="fill:#21d6a2;"/><rect x="429.75" y="87.71" width="6.7" height="57.17" style="fill:#21d6a2;"/></svg>