<?xml version="1.0" encoding="UTF-8"?><svg id="a" xmlns="http://www.w3.org/2000/svg" viewBox="0 0 532 433"><rect x="21.75" y="292.74" width="138.08" height="140.26" rx="6.1" ry="6.1" style="fill:#e5e5e5;"/><line x1="51.48" y1="319.66" x2="51.48" y2="406.66" style="fill:none; stroke:#b6b5b7; stroke-miterlimit:10;"/><line x1="64.86" y1="319.66" x2="64.86" y2="406.66" style="fill:none; stroke:#b6b5b7; stroke-miterlimit:10;"/><line x1="78.23" y1="319.66" x2="78.23" y2="406.66" style="fill:none; stroke:#b6b5b7; stroke-miterlimit:10;"/><line x1="91.61" y1="319.66" x2="91.61" y2="406.66" style="fill:none; stroke:#b6b5b7; stroke-miterlimit:10;"/><line x1="104.98" y1="319.66" x2="104.98" y2="406.66" style="fill:none; stroke:#b6b5b7; stroke-miterlimit:10;"/><line x1="118.35" y1="319.66" x2="118.35" y2="406.66" style="fill:none; stroke:#b6b5b7; stroke-miterlimit:10;"/><line x1="131.73" y1="319.66" x2="131.73" y2="406.66" style="fill:none; stroke:#b6b5b7; stroke-miterlimit:10;"/><circle cx="51.54" cy="358.82" r="2.24" style="fill:#f4f4f4; stroke:#727272; stroke-miterlimit:10;"/><circle cx="64.86" cy="381.07" r="2.24" style="fill:#f4f4f4; stroke:#727272; stroke-miterlimit:10;"/><circle cx="78.23" cy="336.95" r="2.24" style="fill:#f4f4f4; stroke:#727272; stroke-miterlimit:10;"/><circle cx="91.61" cy="369.76" r="2.24" style="fill:#f4f4f4; stroke:#727272; stroke-miterlimit:10;"/><circle cx="104.98" cy="347.91" r="2.24" style="fill:#f4f4f4; stroke:#727272; stroke-miterlimit:10;"/><circle cx="118.35" cy="386.51" r="2.24" style="fill:#f4f4f4; stroke:#727272; stroke-miterlimit:10;"/><circle cx="131.73" cy="340" r="2.24" style="fill:#f4f4f4; stroke:#727272; stroke-miterlimit:10;"/><circle cx="241.69" cy="239.71" r="71.82" style="fill:none; stroke:#4f4f4f; stroke-miterlimit:10; stroke-width:27px;"/><path d="M341.69,241.04c0-55.27-44.73-100-100-100" style="fill:none; stroke:#e5e5e5; stroke-miterlimit:10; stroke-width:50px;"/><rect x="360.8" y="21.93" width="169.11" height="169.11" rx="9.39" ry="9.39" style="fill:#e5e5e5;"/><rect x="390.11" y="51.36" width="111.34" height="111.34" style="fill:none; stroke:silver; stroke-miterlimit:10;"/><circle cx="390.11" cy="162.69" r="1.89" style="fill:#aaa;"/><circle cx="501.45" cy="162.69" r="1.89" style="fill:#aaa;"/><circle cx="501.45" cy="51.36" r="1.89" style="fill:#aaa;"/><circle cx="390.11" cy="51.36" r="1.89" style="fill:#aaa;"/><rect x="464.09" y="53.11" width="9.04" height="41.73" transform="translate(542.59 -394.63) rotate(90)" style="fill:#efefef;"/><rect x="420.92" y="51.67" width="9.04" height="44.61" transform="translate(499.42 -351.46) rotate(90)" style="fill:#6b6b6b;"/><rect x="465.71" y="76.63" width="9.04" height="38.5" transform="translate(566.11 -374.35) rotate(90)" style="fill:#efefef;"/><rect x="422.53" y="71.96" width="9.04" height="47.85" transform="translate(522.93 -331.18) rotate(90)" style="fill:#afafaf;"/><rect x="456.49" y="89.68" width="9.04" height="56.92" transform="translate(579.16 -342.87) rotate(90)" style="fill:#efefef;"/><rect x="413.32" y="103.43" width="9.04" height="29.42" transform="translate(535.99 -299.7) rotate(90)" style="fill:#d8d8d8;"/><rect x="473.93" y="128.76" width="9.04" height="22.05" transform="translate(618.24 -338.66) rotate(90)" style="fill:#efefef;"/><rect x="430.76" y="107.64" width="9.04" height="64.29" transform="translate(575.06 -295.49) rotate(90)" style="fill:#21d6a2;"/><circle cx="304.42" cy="182.05" r="3.59" style="fill:#f4f4f4; stroke:#474747; stroke-miterlimit:10;"/><rect x="10.69" y="12.38" width="121.04" height="150.31" rx="9.39" ry="9.39" style="fill:#e5e5e5; opacity:.5;"/><line x1="20.63" y1="40.59" x2="123.8" y2="40.59" style="fill:none; stroke:silver; stroke-miterlimit:10;"/><line x1="20.63" y1="113.74" x2="123.8" y2="113.74" style="fill:none; stroke:silver; stroke-miterlimit:10;"/><line x1="20.63" y1="129.64" x2="123.8" y2="129.64" style="fill:none; stroke:silver; stroke-miterlimit:10;"/><line x1="20.63" y1="121.69" x2="46.65" y2="121.69" style="fill:none; stroke:silver; stroke-miterlimit:10;"/><line x1="20.63" y1="30.7" x2="33.11" y2="30.7" style="fill:none; stroke:silver; stroke-miterlimit:10;"/><path d="M20.24,79.74c.87,1.35,5.38,3.86,7.61,3.76,6.75-.3,14.52-11.13,21.28-11.16,13.18-.05,16.45,21.5,26.26,21.2,14.93-.46,14.3-32.2,24.1-32.2,8.52,0,16.39,26.5,25.08,28.95" style="fill:none; stroke:#666; stroke-miterlimit:10;"/><circle cx="99.49" cy="61.33" r="4.62" style="fill:#f4f4f4; stroke:#21d6a2; stroke-miterlimit:10; stroke-width:2px;"/><rect x=".64" y=".68" width="143.97" height="177.78" rx="6.53" ry="6.53" style="fill:none; stroke:silver; stroke-miterlimit:10;"/></svg>