<?xml version="1.0" encoding="UTF-8"?><svg id="a" xmlns="http://www.w3.org/2000/svg" viewBox="0 0 548 526"><rect y="284.37" width="241.63" height="241.63" rx="6.1" ry="6.1" style="fill:#e5e5e5;"/><rect x="40.75" y="324.61" width="162.16" height="162.16" style="fill:none; stroke:silver; stroke-miterlimit:10;"/><circle cx="40.75" cy="486.77" r="2.75" style="fill:#aaa;"/><circle cx="202.91" cy="486.77" r="2.75" style="fill:#aaa;"/><circle cx="202.91" cy="324.61" r="2.75" style="fill:#aaa;"/><circle cx="40.75" cy="324.61" r="2.75" style="fill:#aaa;"/><path d="M154.38,421.54c-5.42,17.14-22,28.56-39.97,26.36-20.36-2.49-34.78-21.53-32.2-42.52,1.73-14.14,10.73-25.56,22.65-30.74" style="fill:none; stroke:#b6b5b7; stroke-miterlimit:10; stroke-width:15px;"/><path d="M71.05,396.04c4.52-24.24,25.2-42.56,50.03-42.56,28.14,0,50.94,23.52,50.94,52.52,0,19.54-10.35,36.59-25.71,45.64" style="fill:none; stroke:#727272; stroke-miterlimit:10; stroke-width:27px;"/><rect x="54.61" y="46.41" width="203.96" height="203.96" rx="6.1" ry="6.1" style="fill:#e5e5e5;"/><rect x="104.77" y="99.36" width="9.55" height="47.47" style="fill:#fbfbfb;"/><rect x="104.77" y="146.82" width="9.55" height="52.33" style="fill:#ccc;"/><rect x="133.62" y="99.36" width="9.55" height="64.98" style="fill:#fbfbfb;"/><rect x="133.62" y="164.34" width="9.55" height="34.82" style="fill:#21d6a2;"/><rect x="164.56" y="99.36" width="9.55" height="25.17" style="fill:#fbfbfb;"/><rect x="164.56" y="124.53" width="9.55" height="74.63" style="fill:#ccc;"/><rect x="194.99" y="99.36" width="9.55" height="35.48" style="fill:#fbfbfb;"/><rect x="194.99" y="134.84" width="9.55" height="64.32" style="fill:#ccc;"/><rect x="307.47" y="3.49" width="236.76" height="233.86" rx="9.39" ry="9.39" style="fill:#e5e5e5;"/><rect x="348.76" y="40.59" width="156.84" height="156.84" style="fill:none; stroke:silver; stroke-miterlimit:10;"/><circle cx="348.76" cy="197.43" r="2.66" style="fill:#aaa;"/><circle cx="505.6" cy="197.43" r="2.66" style="fill:#aaa;"/><circle cx="505.6" cy="40.59" r="2.66" style="fill:#aaa;"/><circle cx="348.76" cy="40.59" r="2.66" style="fill:#aaa;"/><rect x="452.97" y="43.07" width="12.74" height="58.79" transform="translate(531.8 -386.88) rotate(90)" style="fill:#efefef;"/><rect x="392.16" y="41.04" width="12.74" height="62.84" transform="translate(470.99 -326.07) rotate(90)" style="fill:#6b6b6b;"/><rect x="455.25" y="76.19" width="12.74" height="54.23" transform="translate(564.93 -358.32) rotate(90)" style="fill:#efefef;"/><rect x="394.44" y="69.61" width="12.74" height="67.4" transform="translate(504.11 -297.5) rotate(90)" style="fill:#afafaf;"/><rect x="442.28" y="94.58" width="12.74" height="80.18" transform="translate(583.31 -313.98) rotate(90)" style="fill:#efefef;"/><rect x="381.46" y="113.94" width="12.74" height="41.45" transform="translate(522.5 -253.16) rotate(90)" style="fill:#d8d8d8;"/><rect x="466.83" y="149.63" width="12.74" height="31.07" transform="translate(638.36 -308.04) rotate(90)" style="fill:#efefef;"/><rect x="406.02" y="119.88" width="12.74" height="90.57" transform="translate(577.55 -247.23) rotate(90)" style="fill:#afafaf;"/><rect x="292.73" y="286.11" width="205.63" height="205.63" rx="6.1" ry="6.1" style="fill:#e5e5e5;"/><path d="M307.47,388.92c1.49,2.89,9.16,8.22,12.96,8.01,11.5-.63,24.78-28.34,36.3-28.39,22.45-.11,27.97,50.44,44.68,49.8,25.43-.97,25.67-77.73,42.36-77.73,10.54,0,26.61,65.58,41.42,70.79" style="fill:none; stroke:#b6b5b7; stroke-miterlimit:10; stroke-width:2px;"/><circle cx="444.45" cy="343.62" r="9.86" style="fill:#f4f4f4; stroke:#21d6a2; stroke-miterlimit:10; stroke-width:4px;"/></svg>