<?xml version="1.0" encoding="UTF-8"?>
<svg id="a" xmlns="http://www.w3.org/2000/svg" version="1.1" viewBox="0 0 660 124">
  <!-- Generator: Adobe Illustrator 29.5.1, SVG Export Plug-In . SVG Version: 2.1.0 Build 141)  -->
  <defs>
    <style>
      .st0 {
        fill: #00c18a;
      }

      .st1 {
        fill: none;
        stroke: #fff;
        stroke-miterlimit: 10;
        stroke-width: 4px;
      }

      .st2 {
        fill: #191919;
      }
    </style>
  </defs>
  <g>
    <path class="st2" d="M73.4,20h12.5l20.6,62.5,20-62.3,13.5,5.7-27.3,78.9h-12.7l-20.6-60.4-20.6,60.4h-12.7L16.7,20.3h16l20,62.3s20.6-62.5,20.6-62.5Z"/>
    <path class="st2" d="M219.3,33.6h-47.5v21.6h42.1v13.3h-42.1v22.4h48.1v13.3h-62.8V20.3h62.2v13.3Z"/>
    <path class="st2" d="M295.3,26c5,3.9,7.4,9.1,7.4,15.8s-.3,4.8-1,6.8-1.5,3.8-2.6,5.2-2.3,2.8-3.8,3.9-3,2.1-4.5,2.9c2.5.9,4.7,1.9,6.7,3.1,2,1.2,3.8,2.5,5.2,4.1,1.5,1.6,2.6,3.5,3.4,5.7.8,2.2,1.2,4.7,1.2,7.6s-.7,7.1-2.2,9.9c-1.5,2.9-3.6,5.3-6.3,7.2-2.7,2-6,3.4-9.8,4.4-3.8,1-8.1,1.5-12.7,1.5h-38.8V20.3h37.6c8.5,0,15.2,1.9,20.1,5.8h0ZM283.7,53c2.9-1.9,4.3-4.8,4.3-8.8s-1.3-6.1-3.8-8-6.2-2.8-10.9-2.8h-21.2v22.4h20.1c4.8,0,8.6-.9,11.5-2.8h0ZM288.4,88.2c2.9-2,4.3-4.9,4.3-8.7s-1.4-6.4-4.2-8.4-7.2-3-13-3h-23.3v23h24.4c5,0,9-1,11.9-2.9h0Z"/>
    <path class="st2" d="M396.9,78.8c-2.2,5.2-5.2,9.6-9.2,13.4-4,3.8-8.7,6.7-14.2,8.9-5.5,2.2-11.5,3.2-18.1,3.2h-31.3V20.3h31.3c6.6,0,12.6,1.1,18.1,3.2,5.5,2.1,10.2,5.1,14.2,8.8,4,3.8,7,8.2,9.2,13.3s3.2,10.6,3.2,16.6-1.1,11.5-3.2,16.6ZM382.5,50.9c-1.4-3.5-3.4-6.5-5.9-9.1s-5.6-4.6-9.2-6c-3.6-1.5-7.6-2.2-12-2.2h-16.6v57.4h16.6c4.4,0,8.4-.7,12-2.1s6.7-3.4,9.2-5.9c2.5-2.5,4.5-5.5,5.9-9,1.4-3.5,2.1-7.3,2.1-11.5s-.7-8-2.1-11.5h0Z"/>
    <path class="st2" d="M488,95l-11,9.3-8.5-20.3h-39.7l-8.6,20.3h-15.1l37-84.6h13.7l32.3,75.3h0ZM448.6,37.3l-14.4,33.6h28.9l-14.5-33.6h0Z"/>
    <path class="st2" d="M531.8,104.3h-14.9V34h-26.6v-13.7h62.2v13.7h-20.6v70.3h0Z"/>
    <path class="st2" d="M639,94l-11,10.3-8.5-20.3h-39.7l-8.6,20.3h-15.1l37-84.6h13.7s32.3,74.3,32.3,74.3ZM599.6,37.3l-14.4,33.6h28.9l-14.5-33.6h0Z"/>
  </g>
  <g id="b">
    <g>
      <g>
        <circle class="st0" cx="132.5" cy="25.5" r="9.2"/>
        <circle class="st1" cx="132.5" cy="25.5" r="9.2"/>
      </g>
      <g>
        <circle class="st0" cx="245" cy="97" r="9.2"/>
        <circle class="st1" cx="245" cy="97" r="9.2"/>
      </g>
      <g>
        <circle class="st0" cx="331" cy="27" r="8.8"/>
        <circle class="st1" cx="331" cy="27" r="8.8"/>
      </g>
      <g>
        <circle class="st0" cx="482" cy="97" r="9.2"/>
        <circle class="st1" cx="482" cy="97" r="9.2"/>
      </g>
      <g>
        <circle class="st0" cx="214" cy="26" r="8.8"/>
        <circle class="st1" cx="214" cy="26" r="8.8"/>
      </g>
      <g>
        <circle class="st0" cx="552" cy="27" r="8.8"/>
        <circle class="st1" cx="552" cy="27" r="8.8"/>
      </g>
      <g>
        <circle class="st0" cx="633" cy="97" r="9.2"/>
        <circle class="st1" cx="633" cy="97" r="9.2"/>
      </g>
    </g>
  </g>
</svg>