<?xml version="1.0" encoding="utf-8"?>
<!-- Generator: Adobe Illustrator 26.2.1, SVG Export Plug-In . SVG Version: 6.00 Build 0)  -->
<svg version="1.1" id="Layer_1" xmlns="http://www.w3.org/2000/svg" xmlns:xlink="http://www.w3.org/1999/xlink" x="0px" y="0px"
	 viewBox="0 0 660 124" style="enable-background:new 0 0 660 124;" xml:space="preserve">
<style type="text/css">
	.st0{fill:#FBFBFB;}
	.st1{fill:#21D6A2;}
	.st2{fill:none;stroke:#FFFFFF;stroke-width:4;stroke-miterlimit:10;}
</style>
<g id="a">
	<g>
		<path class="st0" d="M73.4,20h12.5l20.6,62.5l20-62.3L140,26l-27.3,78.9H100L79.4,44.5l-20.6,60.4H46L16.7,20.3h16l20,62.3
			L73.4,20z"/>
		<path class="st0" d="M219.3,33.6h-47.5v21.6h42.1v13.3h-42.1V91h48.1v13.3h-62.8v-84h62.2L219.3,33.6L219.3,33.6z"/>
		<path class="st0" d="M295.3,26c5,3.9,7.4,9.1,7.4,15.8c0,2.6-0.3,4.8-1,6.8s-1.5,3.8-2.6,5.2s-2.3,2.8-3.8,3.9s-3,2.1-4.5,2.9
			c2.5,0.9,4.7,1.9,6.7,3.1c2,1.2,3.8,2.5,5.2,4.1c1.5,1.6,2.6,3.5,3.4,5.7s1.2,4.7,1.2,7.6c0,3.8-0.7,7.1-2.2,9.9
			c-1.5,2.9-3.6,5.3-6.3,7.2c-2.7,2-6,3.4-9.8,4.4s-8.1,1.5-12.7,1.5h-38.8v-84h37.6C283.6,20.3,290.3,22.2,295.3,26L295.3,26z
			 M283.7,53c2.9-1.9,4.3-4.8,4.3-8.8c0-3.5-1.3-6.1-3.8-8s-6.2-2.8-10.9-2.8h-21.2v22.4h20.1C277,55.8,280.9,54.9,283.7,53
			L283.7,53z M288.4,88.2c2.9-2,4.3-4.9,4.3-8.7c0-3.6-1.4-6.4-4.2-8.4s-7.2-3-13-3h-23.3v23h24.4C281.6,91.2,285.5,90.2,288.4,88.2
			L288.4,88.2z"/>
		<path class="st0" d="M396.9,78.8c-2.2,5.2-5.2,9.6-9.2,13.4s-8.7,6.7-14.2,8.9c-5.5,2.2-11.5,3.2-18.1,3.2h-31.3v-84h31.3
			c6.6,0,12.6,1.1,18.1,3.2s10.2,5.1,14.2,8.8s7,8.2,9.2,13.3s3.2,10.6,3.2,16.6S399.1,73.6,396.9,78.8z M382.5,50.9
			c-1.4-3.5-3.4-6.5-5.9-9.1s-5.6-4.6-9.2-6c-3.6-1.5-7.6-2.2-12-2.2h-16.6V91h16.6c4.4,0,8.4-0.7,12-2.1s6.7-3.4,9.2-5.9
			s4.5-5.5,5.9-9s2.1-7.3,2.1-11.5S383.9,54.4,382.5,50.9L382.5,50.9z"/>
		<path class="st0" d="M488,95l-11,9.3L468.5,84h-39.7l-8.6,20.3H405l37-84.6h13.7L488,95L488,95z M448.6,37.3l-14.4,33.6h28.9
			L448.6,37.3L448.6,37.3z"/>
		<path class="st0" d="M531.8,104.3h-14.9V34h-26.6V20.3h62.2V34h-20.6L531.8,104.3L531.8,104.3z"/>
		<path class="st0" d="M639,94l-11,10.3L619.5,84h-39.7l-8.6,20.3H556l37-84.6h13.7C606.7,19.7,639,94,639,94z M599.6,37.3
			l-14.4,33.6h28.9L599.6,37.3L599.6,37.3z"/>
	</g>
	<g id="b">
		<g>
			<g>
				<circle class="st1" cx="132.5" cy="25.5" r="9.2"/>
				<circle class="st2" cx="132.5" cy="25.5" r="9.2"/>
			</g>
			<g>
				<circle class="st1" cx="245" cy="97" r="9.2"/>
				<circle class="st2" cx="245" cy="97" r="9.2"/>
			</g>
			<g>
				<circle class="st1" cx="331" cy="27" r="8.8"/>
				<circle class="st2" cx="331" cy="27" r="8.8"/>
			</g>
			<g>
				<circle class="st1" cx="482" cy="97" r="9.2"/>
				<circle class="st2" cx="482" cy="97" r="9.2"/>
			</g>
			<g>
				<circle class="st1" cx="214" cy="26" r="8.8"/>
				<circle class="st2" cx="214" cy="26" r="8.8"/>
			</g>
			<g>
				<circle class="st1" cx="552" cy="27" r="8.8"/>
				<circle class="st2" cx="552" cy="27" r="8.8"/>
			</g>
			<g>
				<circle class="st1" cx="633" cy="97" r="9.2"/>
				<circle class="st2" cx="633" cy="97" r="9.2"/>
			</g>
		</g>
	</g>
</g>
<g id="c">
</g>
</svg>
