<?xml version="1.0" encoding="UTF-8"?><svg id="a" xmlns="http://www.w3.org/2000/svg" viewBox="0 0 231.62 231.63"><g id="b"><g><path d="M0,115.82c0-27.98,9.92-53.65,26.44-73.67h0C47.68,16.41,79.83,0,115.8,0h0c63.97,0,115.81,51.86,115.82,115.82h0c0,63.95-51.85,115.81-115.82,115.81h0c-63.95,0-115.8-51.85-115.8-115.81H0Zm1.72,0c0,31.51,12.77,60.02,33.42,80.67h0c20.65,20.65,49.16,33.42,80.66,33.42h0c31.51,0,60.03-12.77,80.68-33.42h0c20.65-20.65,33.42-49.16,33.42-80.67h0c0-31.5-12.77-60.02-33.42-80.67h0C175.83,14.5,147.31,1.73,115.8,1.73h0C80.36,1.73,48.7,17.89,27.77,43.25h0C11.49,62.98,1.72,88.26,1.72,115.82h0Z"/><g><path d="M25.44,162.8c.02-1.51,1.26-2.72,2.77-2.7,1.51,.02,2.73,1.26,2.71,2.77-.02,1.52-1.26,2.73-2.77,2.71-1.51-.02-2.72-1.26-2.71-2.78Z"/><path d="M199.74,164.44c.02-1.51,1.26-2.72,2.77-2.7,1.51,.02,2.73,1.26,2.71,2.77-.02,1.51-1.26,2.73-2.77,2.71-1.51-.03-2.73-1.27-2.71-2.78Z"/></g><path d="M195.02,82.55c-4.33-10.22-10.51-19.39-18.39-27.27-7.87-7.86-17.04-14.05-27.25-18.37-10.57-4.46-21.81-6.72-33.37-6.72s-22.81,2.26-33.39,6.72c-10.21,4.32-19.37,10.52-27.26,18.37-7.87,7.88-14.05,17.04-18.36,27.27-4.48,10.56-6.75,21.8-6.75,33.36s2.27,22.83,6.75,33.39c4.31,10.2,10.49,19.38,18.36,27.25,7.88,7.87,17.04,14.06,27.26,18.38,3.2,1.36,6.46,2.5,9.77,3.45l.09,.03c1.66,.52,3.35,.93,5.05,1.27,6.03,1.32,12.2,1.99,18.48,1.99,3.82,0,7.61-.25,11.35-.74h.03c2.18-.13,3.72-.46,4.73-.77,5.9-1.12,11.68-2.86,17.26-5.22,10.21-4.32,19.38-10.51,27.25-18.38l-.61-.61,.61,.61c7.88-7.87,14.05-17.05,18.38-27.25,4.46-10.56,6.73-21.8,6.73-33.39s-2.26-22.8-6.72-33.37ZM62.81,180.96c-.13-.11-.35-.47-.24-.75,.05-.11,.11-.24,.18-.36,.37-.69,.97-1.49,1.48-2.1,.89,1.92,3.04,5.63,7.58,9.64-3.14-1.94-6.14-4.08-9-6.43Zm-.71-50.84c1.76,1.72,2.07,3.21,2.08,4.22,0,.41-.06,.73-.11,.95-.03,.11-.05,.19-.07,.24,0,.01-.01,.02-.01,.03-.08,.12-.77,1.42-2.74,1.42-.3,0-.65-.03-1.03-.11-3.33-.65-6.63-1.94-9.35-2.28-.04-.01-.1,0-.15-.01l6.54-8.97c2.14,1.97,3.99,3.69,4.84,4.51Zm-13.7-14.95l42.62-43.1-25.55,59.99c-.38-1-1.05-2.1-2.17-3.18-2.39-2.32-12.24-11.29-14.9-13.71Zm11.48,23.39c.48,.09,.94,.14,1.36,.14,1.52,.01,2.62-.57,3.3-1.16s.96-1.17,.99-1.24h0v-.02s.01-.02,.02-.05l.05-.11,26.21-61.3c.06,.41,.18,1.2,.29,1.58,.41,6.88,1.99,11.71,3.65,15.41,.96,2.14,1.94,3.78,2.7,4.93,.38,.58,.71,1.04,.96,1.37,.08,.11,.16,.21,.22,.29l-6.11,21.11c-.1,.33,.02,.7,.29,.91l1.46,1.16s.18,.17,.1,.49c-.09,.32-6.8,25.1-6.8,25.1l-21.32,24.48c-1.58-1.31-6.2-5.59-12.32-15.1-5.33-8.27-6.92-13.49-6.91-16.46,0-1.48,.37-2.38,.81-2.94l.02-.02,.02-.03s.05-.07,.08-.1c.49-.54,1.09-.73,1.54-.73,.06,0,.11,0,.16,.01,2.37,.3,5.72,1.58,9.23,2.28ZM105.09,48.34c-.15-.44-.62-.68-1.06-.54,.38-.34,.75-.66,1.11-.97l3.7-.48c.47-.06,.8-.5,.74-.97s-.49-.8-.97-.74l-.56,.08c1.16-.68,2.34-1.23,3.32-1.63,.66-.27,1.22-.48,1.62-.62,.4-.13,.61-.2,.62-.2,.46-.13,.72-.61,.58-1.07-.14-.45-.62-.71-1.07-.58-.03,.01-1.47,.43-3.33,1.28,.27-.39,.18-.92-.21-1.2-.39-.27-.93-.18-1.2,.21l-1.98,2.81c-.18,.12-.36,.23-.53,.35-.25,.18-.53,.39-.83,.63l.2-.39c.22-.42,.05-.94-.37-1.16-.42-.22-.94-.05-1.16,.37l-2.17,4.22c-.54,.5-1.04,.97-1.47,1.38,.07-2.25,.67-6.22,3.2-8.11,2.48-1.9,4.54-2.31,6.26-2.31,1.01,0,1.9,.15,2.69,.27,.37,.05,1.7,.37,2.85,.66,1.16,.3,2.21,.57,2.21,.58l.22,.03c1.27,.01,1.9,.33,2.24,.67,.34,.34,.47,.8,.48,1.31,.01,.43-.18,.92-.39,1.29-.08,.14-.15,.24-.21,.34l-6.43,.71c-.23,.03-.45,.15-.59,.33l-4.05,5.34h-1.98l-.18,.03c-.08,.02-.44,.1-.84,.43-.41,.32-.81,.97-.79,1.8-.01,1.61,.55,2.71,1.16,3.35,.06,.07,.13,.13,.19,.19l-2.64,2.64c-.41-.11-1.08-.34-1.7-.78-.8-.56-1.53-1.39-1.77-2.84-.13-.84-.18-1.53-.18-2.08,0-.58,.05-1,.11-1.3,.01-.01,.02-.01,.03-.02,0,0,.39-.38,.99-.96l3.64-1.24c.41-.17,.65-.66,.5-1.11Zm13.17,6.58s.01,.27-.21,.4c-.23,.13-.38,.35-.43,.61-.04,.26,.07,.5,.21,.71,.03,.05,.04,.16-.02,.27-.06,.1-.17,.3-.17,.3-.12,.21-.15,.46-.07,.69v.03c.04,.1,.1,.38,.1,.68,0,.17-.13,.65-.47,.79-.32,.14-.86,.25-1.58,.27l-1.82-.04c-.42-.01-.79,.29-.86,.7-.01,.04-.05,.27-.05,.63,0,.47,.07,1.18,.45,1.9,.14,.28,.35,.55,.6,.8,0,0,0,.01,.01,.01h0l3.06,3.43-7.94,.54-5.41-4.23c.27-.13,.42-.21,.42-.21,.29-.14,.48-.44,.48-.77v-2.5l3.47-3.48c.21-.21,.3-.53,.23-.82-.08-.3-.3-.53-.59-.61h0c-.16-.11-1.2-.44-1.23-2.57,.01-.35,.1-.39,.17-.48,.03-.02,.06-.04,.08-.06l2.26-.02c.27,0,.52-.13,.68-.34,0,0,3.61-4.78,3.86-5.08,.25-.31,.63-.34,.63-.34l4.89-.53s.25-.01,.29,.29c.04,.45,.09,1,.15,1.6,.01,.25-.15,.34-.25,.35-.62,.02-1.27,.04-1.96,.06-.72,.03-1.51,.36-2.03,.8-.39,.32-.4,.93-.04,1.28,.2,.19,.63,.26,1.1,.4,.59,.18,1.25,.4,1.58,.3,.42-.14,.58-.51,.61-.92,.03-.45,.3-.77,.76-.77,.19,0,.31,.16,.33,.32,.09,.86,.24,1.94,.3,2.56,.03,.3,.05,.58,.07,.82,.01,.31-.26,.33-.4,.35-.29,.04-.51,.04-.51,.05-.23,.01-.45,.11-.6,.29-.16,.17-.23,.4-.22,.63l.07,.91Zm-9.98,14.3c.15,.12,.34,.18,.53,.18h.06l10.02-.68c.33-.02,.62-.23,.74-.54,.13-.3,.06-.65-.15-.9l-1.8-2.02c1.05,.32,1.95,.6,2.65,.81,.54,.14,1.52,1,2.35,2.13,.79,1.03,1.51,2.25,1.99,3.24-.35,1.78-.86,3.53-1.4,5.29l-4.44,3.37-9.67-6.51c-.49-.72-2.74-4-4.9-6.17-1.15-1.13-2.77-1.58-4.39-1.58-.3,0-.6,.02-.9,.05,.42-.23,.85-.46,1.26-.68,.63-.33,1.24-.65,1.77-.93l6.28,4.94Zm-8.43-1.65c1.32,0,2.49,.38,3.18,1.07,1.12,1.12,2.33,2.64,3.24,3.88,.92,1.24,1.54,2.17,1.54,2.18,.06,.1,.14,.18,.24,.24l10.32,6.95c.31,.21,.71,.2,1-.03l13.14-9.99,.06-.05s.29-.26,.67-.58c.38-.32,.86-.7,1.15-.88,.68-.45,3.58-2.17,5.43-2.22,.16-.01,.32-.01,.47-.01,.89-.01,1.54,.15,1.87,.37,.31,.22,.45,.4,.48,1.05,0,1.05,.02,2.6,.02,2.6,0,.42,.3,.7,.71,.77,.32,0,.76,.09,.76,.59,0,.57-.39,.65-.57,.68-.31,.04-.61,.08-.73,.09h-.81l-.22,.03s-1.11,.29-2.3,.57c-.59,.14-1.21,.29-1.71,.39-.25,.05-.47,.1-.64,.13-.08,.01-.15,.02-.2,.03-.05,.01-.06,0-.06,.01-.76,0-1.94,.13-1.96,.13-.24,.03-.47,.16-.61,.36,0,.01-1.46,2.07-3.28,4.5s-4.03,5.25-5.44,6.66-2.68,2.58-3.53,3.32c-.26,.23-.49,.42-.68,.58-.1,.08-.33,.19-.58,.09-1.26-.52-3.95-1.6-7.19-2.98-4.52-1.93-10.12-4.44-14.36-6.71-.84-.43-2.34-1.35-3.58-2.66-.13-.14-.26-.29-.39-.44-.04-.05-.08-.1-.12-.14-.1-.12-.19-.24-.28-.35-.07-.09-.13-.19-.2-.28-.06-.08-.11-.16-.16-.25-.06-.09-.12-.19-.18-.29-.02-.04-.04-.08-.07-.12-.12-.21-.22-.42-.31-.64-.01-.03-.03-.06-.04-.09-.05-.13-.1-.26-.14-.39h0c-.08-.24-.14-.48-.19-.72-.02-.1-.04-.21-.06-.31l-.03-.24c-.02-.2-.04-.4-.04-.61,0-.14,.01-.27,.02-.41,.01-.11,.02-.23,.04-.35v-.06c.04-.28,.1-.56,.18-.85h0c.05-.17,.1-.35,.17-.53,0-.01,.01-.02,.01-.03,.06-.16,.13-.34,.2-.51,.01-.02,.02-.05,.03-.07,.07-.16,.15-.32,.24-.48,.02-.03,.04-.07,.06-.11,.11-.19,.22-.39,.34-.59h0c.78-1.33,3.03-2.32,5.09-2.3Zm26.98-13.13c0-.38,.13-.44,.2-.43,1.31,.21,2.03,.78,2.49,1.32,.28,.34,.45,.69,.55,.94,.05,.13,.08,.23,.1,.3,.01,.03,.01,.06,.02,.07h0c.07,.41,.43,.72,.85,.72h16.8c.43,0,.79-.31,.85-.73,.02-.08,.15-.63,.69-1.14,.45-.42,1.19-.88,2.53-1.05,.18-.04,.21,.14,.21,.3,0,1.78-.06,5.49-.06,10.87,0,4.38,1.13,7.92,2.21,11.42,1.09,3.51,2.13,6.98,2.13,11.42,0,2.37-.45,4.64-1.33,6.7-.77-.43-1.42-.69-1.78-.79-.12-.03-.24-.05-.36-.05-.68,.03-1.12,.33-1.55,.63-.42,.34-.75,.58-.99,1.12-.07,.18-.1,.36-.1,.53,.01,.47,.17,.79,.29,1.04-.18,.15-.39,.32-.6,.51-.28,.25-.57,.52-.82,.81s-.48,.56-.62,.98c-.08,.26-.13,.53-.13,.81,0,.53,.15,1.01,.39,1.5-2.61,1.51-5.88,2.4-9.82,2.41-5.75,0-9.86-1.98-12.6-4.84-2.03-2.14-3.29-4.8-3.8-7.56,.85-.72,2.34-2.03,4.23-3.92,.32-.32,.67-.7,1.04-1.12,.61,2.16,1.82,3.96,3.4,5.3,2.21,1.88,5.1,2.89,8.09,2.98,.05,.01,.11,.02,.16,.02,.02,0,.05,0,.07-.01,.07,0,.14,.01,.21,.01,6.47-.02,11.32-5.75,11.33-12.09,0-2.85-.67-4.84-1.29-7.91-.63-3.08-1.25-7.36-1.25-14.89,0-.23-.09-.45-.25-.61-.16-.16-.38-.25-.61-.25h-16.59c-.23,0-.45,.09-.61,.25-.16,.16-.25,.38-.25,.61,0,5.39-.35,8.86-.79,11.44l-3.9,2.96c.31-1.12,.59-2.26,.81-3.42,.02-.05,.02-.1,.03-.15,.28-1.5,.45-3.04,.46-4.63,0-5.7-.02-10.22-.04-12.38Zm23.92,47.67c-.47-.66-.62-1.1-.61-1.39,0-.1,.01-.19,.05-.3h0c.07-.16,.58-.71,1.04-1.1,.46-.41,.88-.72,.88-.72,.24-.15,.4-.54,.38-.77-.01-.34-.1-.46-.16-.6-.06-.12-.12-.23-.17-.32-.06-.13-.1-.42,.16-.67,.29-.3,.71-.18,.79-.14,.32,.13,.84,.37,1.35,.67,.75,.44,1.51,1.05,1.78,1.57,.28,.48,.51,1.12,.5,1.55,0,.29-.12,.5-.26,.66-.28,.32-2.81,2.44-3.07,2.6-.27,.19-1.35,.65-2.27,.99-.27,.1-.53,.19-.76,.28-.32,.13-.37-.08-.37-.08,0,0-.06-.19,.06-.31,.15-.12,.29-.25,.43-.4,.15-.2,.38-.39,.41-.93,.03-.18-.03-.41-.16-.59Zm2.53,59.79s.03,.25-.17,.37c-.2,.11-6.26,3.51-6.26,3.51l-.7-60.5c.69-.22,1.35-.48,1.98-.77l5.15,57.39Zm-27.73,27.97s2.23,2.89,2.32,3.02c.09,.13,.02,.28-.04,.33-3.38,2.76-8.86,4.69-15.13,5.38,.99-4.55,4.79-22.48,7.62-40.74,2.91-18.82,4.2-36.69,4.45-40.41,0,0,2.26-.15,2.66-.19,.39-.04,.44,.19,.44,.43-.01,.24-2.48,71.6-2.48,71.6-.02,.23,.04,.42,.16,.58Zm-30.04-71.02s5.6-19.36,5.68-19.62c.07-.26,.33-.33,.33-.33,0,0,4.1-1.15,4.75-1.36s1.73-.29,1.73-.29l14.09-.86c.74,1.65,1.75,3.21,3.05,4.58,1.14,1.21,2.51,2.26,4.09,3.11,0,0-.03,10.72-.03,10.92s-.1,.43-.55,.47c-.45,.04-14.17,.99-17.59,1.24-.49,.03-1.07,.12-1.59,.26-.52,.15-12.47,3.42-12.47,3.42,0,0-.41,.06-.61-.09-.2-.16-.31-.25-.68-.54-.37-.3-.2-.91-.2-.91Zm5.3-21.74c-1.36-1.87-5.32-7.41-6.66-17.52,.09,.11,.19,.21,.28,.31,1.43,1.5,3.06,2.5,4.03,3,8.63,4.62,22.48,10.08,22.5,10.09,.01,0,.02,0,.03,.01,.12,.58,.28,1.14,.47,1.71l-13,.79s-1.53,.07-2.63,.38c-1.33,.37-4.37,1.24-4.57,1.31-.26,.07-.41-.02-.45-.08Zm28.79,19.92l.63-.13c.4-.08,.69-.44,.69-.84l.03-11.17c2.3,.93,4.97,1.46,8.01,1.46h.03c1.95,0,3.77-.22,5.45-.6l.8,69.21v.21c.01,.71-.18,3.19-2.21,4.65-2.52,1.84-8.16,4.77-15.78,4.97l2.35-67.76Zm-.34-31.52c2.01-2.47,4.23-5.5,5.48-7.22v14.37c-.86-.4-1.66-.9-2.36-1.5-1.63-1.39-2.77-3.26-3.12-5.65Zm7.2,7.78v-16.13c.15-.01,.3-.01,.42-.01,.35-.01,.71-.09,1.26-.2,.16-.04,.33-.07,.51-.11v16.86c-.75-.08-1.48-.21-2.19-.41Zm3.91,.43v-17.3c.79-.19,1.48-.37,1.74-.43h.32v17.35c-.66,.21-1.34,.34-2.06,.38Zm5.35-21.21c-.1-.31-.29-.77-.88-.97-.15-.04-.32-.09-.47-.12,0-.54-.01-1.3-.01-1.89,.01-.41-.06-.81-.2-1.17v-6.93h2.7c.04,7.1,.67,11.32,1.28,14.38,.65,3.19,1.26,5.02,1.25,7.57,0,2.74-1.05,5.35-2.79,7.26-.71,.79-1.54,1.45-2.45,1.96v-16.75c.06-.01,.13-.02,.18-.02,.08-.01,.16-.02,.21-.02h.07c.32,0,.55-.16,.66-.27,.37-.41,.36-.65,.46-.98,.07-.32,.1-.68,.11-1.04,0-.35-.02-.67-.12-1.01Zm-3.29-11.08v5.29c-.62-.23-1.31-.31-2.06-.32v-4.97h2.06Zm-3.78,0v5.14c-.75,.16-1.5,.42-2.19,.72v-5.86h2.19Zm-3.91,0v6.72c-.58,.32-1.02,.6-1.27,.75-.78,.49-1.83,1.43-2.03,1.61h0c.3-2.29,.52-5.18,.55-9.08h2.75Zm-68.17,113.64c.22-.25,23.43-26.9,23.43-26.9,.09-.1,.15-.21,.18-.34,0,0,6.87-25.35,6.92-25.52,.05-.18,.23-.23,.23-.23,0,0,12.18-3.33,12.64-3.47,.47-.13,1.14-.19,1.14-.19l6.76-.47c-.08,.79-.22,2.06-.44,3.69-1.15,8.57-4.66,27.05-13.22,37.12-12.75,15.07-30.4,16.61-37.01,16.61h-.42c-.26,0-.43-.05-.21-.3Zm-.42,2c.31,.01,.66,.01,1.04,.01,6.84,0,25.05-1.57,38.32-17.21,10.92-12.97,13.66-37.71,14.09-42.04l3.42-.24c-.12,1.77-.42,5.97-.96,11.64-.71,7.61-1.83,17.85-3.46,28.38s-3.59,20.97-5.14,28.77c-1.15,5.77-2.07,10.09-2.47,11.95-.04,.17-.25,.48-.65,.48-.95,0-1.9,.09-2.87,.08-3.14,0-6.39-.29-9.59-.91-1.68-.37-3.34-.78-4.99-1.26-11.87-3.74-18.76-9.03-22.69-13.31-1.97-2.15-3.2-4.06-3.93-5.42-.12-.22-.22-.42-.31-.61-.09-.19,.02-.31,.19-.31Zm49.49,22.86c4.92-.85,9.27-2.46,12.45-4.75l2.71,.78c.1,.03,.2,.04,.3,.04,0,0,2.52-.14,2.73-.15,.72-.04,1.04,.38,1.04,.53s.02,.34,.02,.34c0,0,.03,.45-.26,.74-.27,.27-2.21,.8-2.92,1.03-5.14,.97-10.38,1.47-15.7,1.47-.12-.02-.25-.03-.37-.03Zm77.79-51.31c-4.25,10-10.29,18.98-18.02,26.71-7.72,7.71-16.7,13.77-26.7,18.01-3.94,1.67-7.97,3.02-12.07,4.05l-.1-1.67c0-1.01-1.14-1.51-1.77-1.51l-3.61,.06s-1.11-.27-1.25-.31-.1-.18-.08-.21c.25-.31,.27-.75,.02-1.07l-2.76-3.6,.09-2.56c8.1-.2,14.07-3.27,16.85-5.3,2.74-2.03,2.91-5.12,2.92-6.04,0-.13,0-.22-.01-.26l-.08-7.18s.05-.02,.08-.03h0l7.68-4.31c.3-.17,.46-.49,.44-.83l-5.04-56.18c.22-.07,.93-.32,1.74-.62,.98-.38,2.02-.78,2.63-1.18,.55-.39,2.86-2.33,3.42-2.91,.49-.52,.67-1.19,.67-1.78-.01-.92-.36-1.75-.72-2.4-.32-.55-.75-1-1.23-1.39,1.06-2.36,1.6-4.97,1.59-7.67,0-4.71-1.13-8.42-2.21-11.93-1.09-3.51-2.14-6.83-2.14-10.91,0-7.57,.08-12.07,.08-12.08,0-.23-.09-.45-.25-.62-.16-.17-.38-.26-.61-.26-2.54-.01-4.12,.83-4.99,1.77-.41,.44-.65,.87-.81,1.23h-15.54c-.15-.39-.41-.89-.83-1.4-.84-1.04-2.42-2.04-4.88-2.03-.23,0-.45,.09-.61,.26-.16,.16-.25,.38-.25,.61,0,.01,.05,5.71,.05,13.7,0,.63-.03,1.25-.08,1.87-.32-.5-.66-1-1.02-1.48-.96-1.23-1.97-2.32-3.22-2.73-1.12-.34-2.79-.86-4.75-1.46-.72-.23-1.01-.55-1.22-.92-.12-.21-.18-.45-.22-.67l.95,.02h.05c.86-.03,1.59-.14,2.22-.4,.62-.25,1.18-.71,1.39-1.4,.11-.35,.14-.69,.14-.99,0-.34-.04-.63-.09-.85l.41-.72c.13-.23,.15-.51,.05-.75,.19-.17,.29-.43,.27-.69l-.06-.88s.08-.02,.13-.02c.26-.05,.53-.11,.82-.24,.14-.07,.29-.15,.45-.31,.16-.15,.33-.44,.33-.77,0-.23-.05-.78-.13-1.65-.19-2.12-.52-5.72-.63-6.84,.35-.47,.96-1.44,.98-2.71,0-.81-.23-1.77-.98-2.52-.72-.73-1.85-1.16-3.35-1.18-.67-.18-4.14-1.1-5.15-1.25-.75-.11-1.75-.28-2.93-.28-2.01-.01-4.55,.53-7.31,2.67-3.57,2.81-3.86,7.84-3.88,10.07,0,.43,.01,.77,.03,.96-.12,.36-.3,1.1-.3,2.28,0,.65,.05,1.43,.2,2.35,.35,2.23,1.73,3.58,2.95,4.28,.62,.36,1.2,.57,1.64,.7v1.64c-.68,.34-4.97,2.23-9.1,5.07-.09,.08-.43,.27-.75,.64-.01,.01-.02,.01-.03,.02l-46.43,46.95c-.16,.16-.25,.39-.25,.63,.01,.23,.11,.46,.28,.61,.01,.01,3.2,2.91,6.74,6.15,.88,.81,1.79,1.63,2.67,2.44l-8.51,11.67c-.72,.91-1.18,2.24-1.17,4,.01,3.56,1.77,8.97,7.18,17.4,6.17,9.59,10.89,14.01,12.64,15.46l-2.25,2.58c-.08,.08-.8,.84-1.54,1.83-.39,.51-.78,1.08-1.09,1.66-.08,.14-.15,.28-.21,.43-1.52-1.32-3-2.69-4.44-4.13-7.71-7.72-13.77-16.7-17.99-26.71-4.39-10.34-6.61-21.35-6.61-32.71s2.22-22.33,6.61-32.69c4.23-10.02,10.28-19,17.99-26.72,7.73-7.71,16.7-13.77,26.71-18.01,10.37-4.37,21.36-6.59,32.71-6.59s22.34,2.21,32.7,6.59c10.01,4.24,18.99,10.3,26.7,18.01s13.77,16.7,18.02,26.72c4.37,10.36,6.59,21.36,6.59,32.69,.03,11.37-2.19,22.38-6.56,32.72Z"/><g><path d="M17.79,123.12c.99-.13,1.84-.12,2.54,.03,.71,.15,1.31,.44,1.8,.87s.88,1.01,1.17,1.73c.29,.71,.5,1.58,.63,2.59,.11,.86,.12,1.67,.04,2.4-.09,.73-.31,1.38-.66,1.94s-.83,1.02-1.45,1.39c-.62,.36-2.09,.67-2.09,.67-.14,.03-.37,.07-.51,.09l-7.6,.99c-.14,.02-.26,.15-.27,.29l-.06,1.12c-.01,.14-.13,.28-.27,.3l-.34,.04c-.14,.02-.27-.08-.29-.22l-.67-5.12c-.02-.14,.08-.27,.23-.29l.33-.04c.14-.02,.29,.08,.34,.21l.35,1.05c.04,.14,.2,.23,.34,.21l8.5-1.11c1.04-.14,1.82-.55,2.34-1.26,.52-.7,.7-1.67,.54-2.89-.17-1.27-.6-2.15-1.3-2.64-.7-.49-2.81-.48-2.81-.48-.14,0-.38,.02-.52,.04l-7.72,1.01c-.14,.02-.27,.15-.27,.29l-.07,1.12c-.01,.15-.13,.28-.27,.3l-.33,.04c-.14,.02-.27-.08-.29-.23l-.6-4.59c-.02-.14,.08-.27,.22-.29l.34-.04c.14-.02,.29,.08,.34,.21l.35,1.07c.04,.13,.2,.23,.34,.21l7.65-1.01Z"/><path d="M8.62,111.22c0-.14,.12-.32,.24-.39l10.73-6.4-8.98-.66c-.14-.01-.29,.09-.33,.23l-.29,1.06c-.04,.14-.19,.24-.33,.23l-.34-.02c-.14-.01-.25-.14-.24-.28l.33-4.41c.01-.14,.14-.25,.28-.24l.34,.03c.14,.01,.27,.14,.29,.28l.13,1.12c.02,.14,.15,.27,.29,.28l12.72,.96c.14,.01,.25,.14,.24,.28l-.1,1.25c-.01,.14-.12,.32-.24,.39l-12.4,7.27,10.45,.79c.14,.01,.29-.09,.33-.23l.29-1.06c.04-.14,.18-.24,.33-.23l.34,.02c.14,.01,.25,.13,.24,.28l-.34,4.42c-.01,.14-.14,.25-.28,.24l-.34-.03c-.14-.01-.27-.14-.29-.28l-.13-1.11c-.02-.14-.15-.27-.29-.28l-11.43-.87c-.14-.01-.29,.09-.33,.23l-.29,1.08c-.04,.14-.18,.24-.33,.23l-.34-.02c-.14-.01-.25-.14-.24-.28l.31-3.88Z"/><path d="M13.02,87.4c.14,.04,.25,.18,.24,.32l-.06,1.1c-.01,.14,.1,.29,.24,.33l11.13,2.78c.14,.04,.3-.04,.36-.17l.46-1c.06-.13,.22-.21,.36-.17l.33,.08c.14,.04,.23,.18,.19,.32l-1.25,5.01c-.04,.14-.18,.22-.31,.19l-.33-.08c-.14-.03-.25-.18-.24-.32l.06-1.1c.01-.14-.1-.29-.24-.32l-11.13-2.78c-.14-.04-.3,.04-.36,.17l-.47,1c-.06,.13-.22,.21-.36,.17l-.33-.09c-.14-.03-.22-.17-.19-.31l1.25-5.01c.04-.14,.18-.22,.32-.19l.33,.07Z"/><path d="M30.46,78.96c.1,.1,.14,.29,.08,.42l-.6,1.42c-.06,.13-.22,.23-.36,.22l-13.51-.91c-.14-.01-.33,.08-.41,.19l-.5,.68c-.09,.12-.26,.17-.39,.11l-.31-.13c-.13-.05-.19-.21-.14-.34l1.85-4.35c.06-.13,.21-.19,.34-.14l.31,.13c.13,.05,.22,.22,.19,.36l-.16,.87c-.02,.14,.07,.26,.21,.28l10.85,.84-7.97-7.62c-.1-.1-.25-.08-.34,.04l-.6,.88c-.08,.12-.25,.17-.39,.12l-.31-.13c-.13-.06-.19-.21-.14-.34l1.67-3.92c.06-.13,.21-.19,.34-.14l.31,.13c.13,.06,.22,.22,.19,.36l-.21,1.02c-.03,.14,.03,.34,.13,.43l9.87,9.52Z"/><path d="M57.59,41.89c.33-.09,.66-.21,1.01-.38,.35-.16,.64-.33,.86-.49,.78-.58,1.26-1.19,1.45-1.85s.05-1.3-.41-1.93c-.27-.37-.59-.63-.95-.77-.36-.14-.74-.21-1.14-.22-.4-.01-.82,.03-1.25,.11s-.86,.15-1.29,.22c-.65,.09-1.23,.16-1.76,.23s-1.01,.08-1.44,.02c-.44-.05-.84-.18-1.21-.39-.37-.21-.72-.54-1.05-.99-.36-.49-.58-1.01-.65-1.54s-.01-1.07,.17-1.6c.19-.54,.5-1.07,.93-1.59,.44-.52,.98-1.02,1.62-1.5,.24-.18,.51-.36,.82-.53,.3-.18,.61-.34,.93-.5,.32-.15,.63-.3,.94-.43s.6-.22,.6-.22c.14-.04,.28-.05,.31-.02,.04,.03,.12,.16,.19,.28l1.09,1.91c.07,.13,.03,.3-.08,.38l-.72,.53c-.11,.08-.3,.08-.41-.01l-1.33-1.12c-.23,0-.51,.07-.83,.19-.32,.12-.66,.32-1.03,.6-.67,.5-1.08,1.04-1.25,1.65-.16,.6-.04,1.18,.36,1.73,.26,.35,.54,.59,.84,.73,.3,.13,.62,.2,.96,.2s.7-.03,1.06-.11c.37-.08,.75-.15,1.14-.22,.54-.07,1.1-.16,1.69-.27,.58-.1,1.15-.14,1.71-.12,.55,.02,1.07,.14,1.56,.34,.49,.2,.9,.56,1.26,1.08,.45,.67,.7,1.31,.76,1.92,.06,.61-.02,1.19-.25,1.75-.22,.55-.58,1.09-1.07,1.61-.49,.52-1.07,1.02-1.72,1.5-.59,.44-1.21,.81-1.86,1.13s-1.49,.66-1.49,.66c-.13,.05-.27,.07-.3,.04s-.12-.16-.19-.28l-1.1-1.9c-.07-.13-.04-.3,.08-.38l.72-.53c.11-.09,.3-.08,.41,.01l1.31,1.07Z"/><path d="M67.87,20.75c.07,.13,.03,.3-.08,.4l-.86,.69c-.11,.09-.15,.27-.08,.39l5.43,10.11c.07,.13,.24,.19,.37,.15l1.05-.33c.14-.04,.3,.02,.37,.15l.16,.3c.07,.13,.02,.28-.11,.35l-4.55,2.44c-.13,.07-.28,.02-.35-.11l-.16-.3c-.07-.12-.03-.3,.08-.39l.85-.7c.11-.09,.15-.26,.08-.39l-5.43-10.1c-.07-.13-.23-.2-.37-.15l-1.05,.33c-.14,.04-.3-.03-.37-.15l-.16-.3c-.07-.13-.02-.29,.11-.35l4.55-2.45c.13-.07,.29-.02,.35,.11l.17,.3Z"/><path d="M73.52,17.45c.03-.08,.17-.19,.3-.24l10.61-3.86c.14-.05,.3-.07,.37-.05,.07,.02,.17,.15,.22,.28l.91,2.27c.05,.13-.01,.28-.15,.33l-.85,.31c-.14,.05-.31-.01-.39-.13l-.75-1.11c-.08-.12-.26-.18-.39-.14l-1.11,.33c-.14,.04-.36,.11-.49,.16l-1.08,.39,3.98,10.97c.05,.13,.21,.23,.35,.2l1.09-.17c.14-.02,.3,.07,.35,.2l.12,.32c.05,.14-.02,.28-.16,.33l-4.85,1.76c-.14,.05-.29-.02-.33-.16l-.12-.32c-.05-.13,.01-.3,.13-.37l.95-.57c.12-.07,.18-.24,.13-.38l-3.99-10.97-1.08,.4c-.14,.05-.35,.14-.49,.19l-1.06,.46c-.13,.06-.23,.22-.21,.36l.14,1.33c.02,.14-.08,.3-.22,.35l-.85,.31c-.14,.05-.28-.02-.33-.16l-.73-2.25c-.04-.11-.05-.29-.02-.37Z"/><path d="M99.5,18.95l-4.74,.9-.73,4.34c-.02,.14,.07,.26,.22,.26l.98,.02c.14,0,.28,.12,.31,.26l.06,.33c.02,.14-.07,.28-.21,.3l-4.15,.78c-.14,.02-.28-.07-.3-.21l-.06-.33c-.03-.14,.06-.3,.19-.36l.85-.36c.13-.06,.26-.22,.29-.36l2.62-13.64c.03-.14,.17-.28,.3-.31l1.82-.34c.14-.02,.31,.05,.38,.18l6.75,11.86c.07,.12,.25,.23,.39,.23l.9,.03c.15,0,.28,.12,.31,.26l.06,.33c.03,.14-.07,.28-.21,.3l-4.75,.9c-.14,.02-.28-.07-.31-.21l-.06-.33c-.03-.14,.06-.3,.19-.36l.85-.36c.13-.05,.18-.2,.12-.33l-2.07-3.78Zm-3.44-6.24l-1.09,6.03,4-.75-2.91-5.28Z"/><path d="M112.63,21.87c.31,.12,.66,.22,1.04,.29s.71,.11,.98,.11c.97,0,1.72-.21,2.27-.63,.54-.42,.81-1.01,.81-1.79,0-.46-.11-.86-.31-1.18-.21-.33-.47-.61-.79-.86s-.68-.46-1.08-.65c-.39-.19-.79-.39-1.17-.59-.57-.31-1.09-.59-1.56-.85-.46-.26-.86-.53-1.18-.83s-.57-.64-.74-1.03c-.17-.39-.26-.86-.26-1.42,0-.61,.13-1.16,.38-1.63,.26-.47,.62-.87,1.09-1.19s1.03-.57,1.69-.73c.66-.17,1.39-.25,2.2-.26,.3,0,.62,.02,.97,.06s.7,.09,1.04,.15c.35,.06,.69,.13,1.01,.21,.33,.08,.61,.18,.61,.18,.13,.05,.26,.12,.27,.16,.01,.05,.01,.2-.01,.34l-.26,2.18c-.02,.14-.15,.26-.29,.26h-.89c-.14,0-.29-.11-.32-.25l-.42-1.69c-.19-.14-.45-.25-.78-.33-.33-.09-.72-.13-1.19-.13-.83,0-1.49,.2-1.98,.59-.49,.39-.73,.93-.73,1.61,0,.44,.09,.8,.25,1.08s.38,.53,.66,.73c.27,.2,.58,.38,.92,.54,.34,.16,.69,.32,1.05,.5,.48,.26,.98,.52,1.52,.78,.53,.26,1.01,.57,1.44,.91,.43,.35,.78,.74,1.06,1.19,.27,.45,.4,.99,.37,1.61-.04,.81-.21,1.47-.52,2s-.72,.95-1.23,1.26c-.51,.32-1.12,.54-1.82,.66-.7,.13-1.46,.19-2.28,.19-.74,0-1.46-.06-2.17-.18-.71-.13-1.59-.35-1.59-.35-.14-.04-.26-.1-.26-.15-.01-.04,0-.2,.02-.34l.24-2.18c.02-.14,.15-.26,.29-.26h.89c.14,0,.29,.11,.32,.25l.44,1.66Z"/><path d="M149.69,27.67c-1.56,.84-3.4,.91-5.53,.22-1.03-.33-1.89-.78-2.6-1.34s-1.24-1.22-1.61-1.98-.56-1.62-.57-2.58,.17-2,.53-3.13c.38-1.18,.87-2.17,1.48-2.96,.6-.79,1.29-1.39,2.06-1.81,.77-.41,1.62-.64,2.54-.67,.92-.04,1.89,.11,2.9,.43,1.01,.33,1.87,.77,2.59,1.33,.71,.56,1.26,1.23,1.63,2s.57,1.64,.58,2.61c.02,.96-.16,2.02-.53,3.16-.76,2.31-1.91,3.89-3.47,4.72Zm1.29-10.3c-.38-1.2-1.21-2-2.49-2.42-1.3-.42-2.45-.27-3.46,.45-1,.72-1.84,2.09-2.49,4.12-.67,2.05-.81,3.67-.44,4.87,.37,1.2,1.21,2,2.5,2.42,1.3,.42,2.45,.27,3.46-.45,1.01-.72,1.84-2.09,2.49-4.12,.66-2.05,.8-3.67,.43-4.87Z"/><path d="M158.1,31.88c.22,.26,.47,.51,.77,.76s.57,.44,.81,.57c.85,.46,1.61,.64,2.29,.53,.68-.1,1.2-.5,1.57-1.18,.22-.41,.32-.8,.3-1.19-.02-.38-.12-.76-.28-1.13-.17-.37-.37-.73-.63-1.08-.26-.36-.5-.71-.74-1.08-.35-.55-.67-1.05-.95-1.5s-.49-.88-.63-1.3c-.14-.42-.19-.83-.15-1.26,.04-.42,.19-.88,.45-1.37,.29-.54,.67-.96,1.12-1.24,.45-.29,.96-.47,1.53-.52,.57-.06,1.18,0,1.84,.17s1.34,.45,2.05,.83c.26,.14,.54,.31,.82,.52,.29,.2,.57,.41,.84,.63,.28,.22,.54,.45,.79,.67,.25,.23,.45,.45,.45,.45,.1,.11,.17,.23,.15,.27-.01,.04-.09,.18-.17,.29l-1.27,1.79c-.08,.12-.26,.16-.38,.09l-.78-.43c-.13-.07-.2-.24-.16-.38l.45-1.68c-.1-.21-.28-.43-.52-.67-.25-.23-.57-.46-.98-.68-.73-.39-1.4-.54-2.02-.43-.62,.11-1.09,.46-1.41,1.06-.21,.38-.31,.74-.3,1.07,.01,.33,.08,.65,.22,.96s.33,.61,.55,.92c.23,.3,.45,.61,.68,.94,.29,.45,.61,.93,.95,1.41,.34,.49,.62,.99,.83,1.5s.33,1.03,.35,1.55c.02,.53-.13,1.06-.45,1.6-.42,.69-.89,1.19-1.42,1.5s-1.09,.48-1.69,.51-1.24-.07-1.91-.29c-.67-.23-1.37-.53-2.09-.92-.65-.35-1.25-.75-1.81-1.2s-1.23-1.07-1.23-1.07c-.11-.1-.18-.21-.16-.26,.02-.04,.1-.17,.18-.29l1.26-1.8c.08-.11,.25-.15,.38-.09l.78,.42c.13,.07,.2,.24,.16,.38l-.44,1.65Z"/><path d="M172.99,41.28c-.09,.11-.07,.28,.04,.37l1.76,1.38c.11,.09,.3,.23,.42,.31l.94,.65c.12,.08,.31,.07,.42-.02l1.15-.93c.11-.09,.3-.09,.41,0l.72,.56c.11,.09,.13,.25,.04,.36l-1.52,1.81c-.09,.11-.21,.24-.26,.28-.05,.05-.19,.01-.3-.08l-7.63-5.98c-.11-.09-.13-.25-.04-.37l.21-.26c.09-.11,.27-.15,.39-.09l.98,.5c.13,.07,.3,.03,.39-.09l7.08-9.02c.09-.11,.08-.29-.01-.4l-.72-.83c-.09-.11-.1-.29-.01-.4l.21-.26c.09-.11,.25-.14,.37-.05l4.05,3.17c.11,.09,.13,.25,.05,.37l-.21,.27c-.09,.11-.26,.15-.39,.09l-.98-.5c-.13-.07-.31-.03-.39,.09l-7.17,9.07Z"/><path d="M189.93,57.34c-1.77-.08-3.39-.95-4.87-2.63-.71-.81-1.23-1.63-1.55-2.47-.32-.84-.45-1.68-.38-2.53s.35-1.68,.82-2.51c.48-.83,1.16-1.64,2.05-2.42,.93-.82,1.86-1.42,2.78-1.8,.92-.38,1.82-.55,2.69-.51,.87,.04,1.71,.28,2.53,.72,.81,.44,1.57,1.05,2.27,1.85,.7,.8,1.22,1.62,1.55,2.46,.33,.85,.45,1.7,.38,2.55-.07,.86-.35,1.7-.83,2.54-.48,.84-1.17,1.65-2.07,2.45-1.81,1.61-3.6,2.38-5.37,2.3Zm6.35-8.21c.29-1.22-.02-2.34-.91-3.35-.9-1.02-1.97-1.48-3.2-1.37-1.23,.11-2.65,.87-4.24,2.27-1.62,1.43-2.57,2.75-2.86,3.97-.29,1.22,.01,2.34,.92,3.36,.9,1.02,1.97,1.48,3.2,1.37,1.23-.11,2.65-.86,4.24-2.27,1.62-1.43,2.57-2.75,2.85-3.98Z"/><path d="M202.15,66.34c.11-.09,.14-.27,.07-.39l-1.55-2.64-5.11,3.08,1.67,2.81c.07,.12,.2,.32,.28,.44l.64,.94c.08,.12,.26,.18,.39,.14l1.4-.46c.13-.04,.31,.02,.38,.14l.48,.8c.07,.12,.03,.28-.1,.35l-2.07,1.14c-.13,.07-.28,.14-.34,.17-.06,.02-.18-.06-.25-.18l-5.37-9.04c-.07-.12-.03-.28,.09-.36l.29-.17c.12-.07,.3-.05,.4,.06l.73,.83c.09,.11,.27,.13,.4,.06l9.86-5.86c.12-.07,.18-.24,.14-.38l-.37-1.04c-.05-.14,.01-.3,.14-.38l.29-.17c.12-.07,.28-.03,.36,.09l5.12,8.62c.07,.12,.13,.28,.12,.36-.01,.07-.11,.2-.23,.28l-2.06,1.32c-.12,.08-.28,.04-.35-.08l-.47-.78c-.07-.12-.05-.3,.06-.4l1.12-1.05c.1-.1,.14-.28,.07-.41l-.53-1.03c-.06-.13-.18-.33-.25-.45l-1.51-2.55-4.52,2.7,1.56,2.63c.07,.12,.24,.18,.38,.13l1.03-.39c.13-.05,.3,.01,.38,.14l.39,.66c.07,.13,.03,.28-.09,.36l-3.33,1.98c-.12,.07-.28,.03-.36-.09l-.39-.66c-.07-.12-.04-.3,.07-.39l.94-.88Z"/><path d="M33.18,60.23c-.13-.06-.3,0-.38,.12l-1.68,2.56,5.02,3.23,1.79-2.74c.08-.12,.2-.32,.27-.45l.56-.99c.07-.13,.05-.31-.05-.41l-1.03-1.05c-.1-.1-.12-.28-.04-.4l.51-.78c.08-.12,.24-.15,.36-.07l1.94,1.36c.12,.08,.25,.19,.3,.23,.05,.05,.03,.18-.05,.3l-5.74,8.81c-.08,.12-.24,.15-.36,.07l-.28-.18c-.12-.08-.17-.25-.12-.38l.42-1.02c.05-.13,0-.3-.12-.38l-9.61-6.26c-.12-.08-.3-.06-.4,.05l-.77,.79c-.1,.1-.28,.12-.4,.04l-.28-.18c-.12-.08-.15-.24-.08-.36l5.48-8.4c.08-.12,.2-.24,.27-.27,.07-.03,.23,.01,.35,.09l2.1,1.27c.12,.07,.16,.23,.08,.35l-.5,.76c-.08,.12-.25,.18-.39,.13l-1.44-.53c-.13-.05-.31,0-.4,.12l-.69,.93c-.09,.12-.22,.31-.3,.43l-1.63,2.48,4.42,2.87,1.67-2.56c.08-.12,.06-.3-.05-.39l-.8-.76c-.1-.1-.12-.28-.05-.4l.42-.64c.08-.12,.24-.16,.36-.08l3.25,2.12c.12,.08,.16,.24,.08,.36l-.42,.65c-.08,.12-.25,.17-.38,.11l-1.21-.55Z"/><path d="M215.89,77.61c.05,.13,.02,.34-.07,.46l-7.32,10.14,8.52-2.97c.13-.05,.23-.2,.21-.34l-.16-1.09c-.02-.14,.07-.3,.21-.34l.32-.11c.14-.05,.29,.03,.33,.16l1.45,4.18c.05,.14-.03,.29-.16,.33l-.32,.11c-.13,.05-.3-.01-.38-.14l-.56-.98c-.07-.12-.24-.19-.38-.14l-12.06,4.17c-.14,.05-.28-.03-.33-.16l-.41-1.19c-.05-.14-.02-.34,.07-.46l8.49-11.61-9.91,3.43c-.14,.05-.23,.2-.21,.34l.16,1.09c.02,.14-.07,.3-.21,.34l-.32,.11c-.14,.05-.29-.02-.33-.16l-1.45-4.18c-.05-.13,.02-.29,.16-.33l.32-.11c.13-.05,.3,.01,.37,.14l.56,.97c.07,.12,.24,.19,.38,.14l10.84-3.75c.14-.05,.23-.2,.21-.34l-.16-1.11c-.02-.14,.07-.3,.21-.34l.32-.11c.14-.04,.28,.03,.33,.16l1.28,3.69Z"/><path d="M208.37,99.54c-.08,.32-.12,.68-.14,1.07-.02,.39-.01,.72,.03,.99,.14,.95,.45,1.67,.94,2.15,.49,.48,1.12,.67,1.89,.56,.46-.07,.83-.22,1.13-.48,.29-.25,.54-.55,.74-.9,.2-.35,.36-.74,.49-1.16s.27-.83,.42-1.24c.23-.61,.44-1.17,.63-1.66,.19-.5,.41-.92,.66-1.29,.25-.36,.56-.65,.92-.87,.36-.22,.82-.37,1.37-.45,.61-.09,1.16-.04,1.66,.15s.95,.49,1.33,.91c.38,.42,.7,.94,.96,1.58,.26,.63,.44,1.35,.56,2.14,.04,.3,.07,.62,.08,.96,.01,.35,.01,.7,0,1.05-.01,.35-.04,.7-.07,1.03-.04,.34-.09,.63-.09,.63-.03,.14-.08,.27-.13,.29-.04,.02-.2,.04-.34,.04l-2.2,.05c-.14,0-.28-.11-.3-.25l-.13-.88c-.02-.14,.07-.3,.21-.36l1.61-.64c.11-.21,.18-.48,.22-.81,.04-.34,.03-.73-.04-1.2-.12-.82-.4-1.45-.86-1.88s-1.02-.59-1.69-.5c-.43,.06-.78,.19-1.04,.4-.26,.2-.47,.45-.64,.75-.16,.3-.3,.63-.41,.99-.11,.36-.22,.73-.35,1.1-.19,.51-.38,1.05-.56,1.61-.19,.56-.42,1.08-.71,1.56-.28,.47-.63,.88-1.03,1.21-.41,.33-.92,.53-1.55,.59-.8,.08-1.49,0-2.05-.24s-1.04-.58-1.42-1.04c-.38-.46-.69-1.03-.91-1.71-.22-.67-.39-1.42-.51-2.23-.1-.73-.14-1.45-.12-2.17,.03-.72,.13-1.62,.13-1.62,.02-.14,.06-.27,.11-.28,.04-.01,.2-.02,.34-.03l2.2-.06c.14-.01,.28,.11,.3,.25l.13,.88c.02,.14-.07,.3-.2,.36l-1.57,.65Z"/><path d="M222.14,118.86c-.14,0-.28-.11-.31-.25l-.22-1.08c-.03-.14-.17-.25-.31-.25l-11.47,.05c-.15,0-.28,.12-.31,.26l-.2,1.08c-.03,.14-.16,.26-.31,.26h-.34c-.14,0-.26-.12-.26-.26l-.02-5.16c0-.14,.12-.26,.26-.26h.34c.14,0,.28,.11,.31,.25l.21,1.08c.03,.14,.17,.25,.31,.25l11.47-.05c.14,0,.28-.12,.31-.26l.2-1.08c.03-.14,.17-.26,.31-.26h.34c.15,0,.26,.12,.26,.26l.02,5.16c0,.14-.12,.26-.26,.26h-.33Z"/><path d="M209.01,127.59c-.17,.29-.32,.62-.45,.98-.13,.36-.22,.68-.26,.95-.15,.95-.06,1.73,.27,2.34,.32,.6,.87,.96,1.64,1.08,.46,.07,.87,.03,1.22-.12s.68-.37,.97-.64c.29-.28,.56-.6,.81-.96s.5-.71,.77-1.06c.4-.51,.76-.98,1.09-1.4,.33-.42,.66-.76,1.01-1.03s.72-.46,1.14-.57c.41-.11,.89-.12,1.44-.03,.61,.09,1.12,.31,1.55,.63,.43,.33,.76,.75,1,1.27,.24,.51,.4,1.11,.45,1.79,.06,.68,.03,1.42-.1,2.21-.04,.3-.12,.61-.21,.95-.09,.34-.2,.67-.31,1-.11,.34-.24,.65-.37,.97-.13,.31-.27,.57-.27,.57-.07,.13-.16,.23-.21,.24-.05,0-.2-.03-.34-.06l-2.12-.6c-.14-.04-.23-.19-.21-.33l.14-.88c.02-.14,.16-.26,.3-.28l1.73-.14c.16-.17,.31-.41,.45-.71,.14-.31,.24-.69,.32-1.15,.13-.82,.04-1.5-.27-2.05-.31-.54-.8-.87-1.47-.97-.43-.07-.8-.04-1.11,.07-.31,.12-.59,.29-.83,.53s-.47,.51-.68,.82-.43,.63-.66,.95c-.33,.43-.67,.89-1.01,1.37-.35,.48-.72,.91-1.13,1.28s-.86,.65-1.35,.85c-.48,.2-1.04,.24-1.65,.11-.79-.17-1.42-.44-1.89-.83-.47-.39-.82-.87-1.05-1.42-.23-.55-.35-1.19-.36-1.9-.01-.71,.05-1.47,.17-2.28,.11-.73,.29-1.43,.53-2.11s.6-1.51,.6-1.51c.06-.13,.14-.24,.19-.24,.04,0,.2,.03,.33,.07l2.12,.58c.14,.04,.23,.18,.21,.33l-.14,.88c-.02,.14-.16,.27-.3,.28l-1.7,.17Z"/></g><g><path d="M54.26,201.44c.13,.06,.3,.01,.38-.11l5.9-8.48-10.99,6.23c-.13,.07-.32,.05-.43-.04l-.44-.36c-.11-.09-.17-.28-.14-.42l3.18-11.87-6.67,7.27c-.1,.1-.12,.28-.03,.39l.67,.91c.09,.12,.08,.3-.02,.4l-.23,.24c-.1,.1-.26,.11-.37,.01l-3.25-3.03c-.11-.1-.11-.26-.01-.37l.23-.25c.1-.1,.28-.13,.4-.05l.94,.59c.12,.07,.3,.05,.4-.05l7.55-8.38c.1-.11,.1-.28,0-.39l-.71-.85c-.09-.11-.09-.29,0-.4l.21-.26c.09-.11,.26-.13,.37-.04l3.4,2.76c.11,.09,.17,.28,.14,.42l-2.71,10.45,9.31-5.07c.13-.07,.32-.05,.43,.04l3.26,2.65c.11,.09,.13,.25,.04,.36l-.21,.26c-.09,.11-.27,.15-.39,.08l-.98-.53c-.13-.07-.3-.03-.39,.08l-6.44,9.15c-.08,.12-.07,.3,.03,.41l.76,.81c.1,.1,.11,.28,.02,.4l-.2,.27c-.09,.12-.25,.14-.36,.06l-4.19-3.07c-.11-.08-.14-.25-.06-.36l.2-.27c.08-.12,.26-.16,.39-.1l1.01,.51Z"/><path d="M78.88,200.71c1.01,.51,1.89,1.09,2.65,1.74,.75,.64,1.32,1.37,1.7,2.17,.38,.8,.55,1.69,.51,2.66-.05,.98-.37,2.05-.97,3.23-.56,1.1-1.22,1.98-1.98,2.63s-1.58,1.09-2.47,1.31-1.83,.24-2.83,.06-2.85-.97-2.85-.97c-.13-.06-.34-.15-.47-.22l-4.96-2.54c-.13-.06-.18-.22-.11-.35l.15-.3c.06-.13,.23-.2,.37-.16l1.07,.31c.14,.04,.3-.03,.37-.16l5.21-10.18c.07-.13,.03-.3-.09-.39l-.87-.68c-.11-.09-.15-.26-.09-.39l.15-.3c.07-.13,.22-.18,.35-.11l5.16,2.64Zm2.33,6.03c.14-.79,.12-1.51-.05-2.15-.18-.64-.52-1.22-1.01-1.72-.5-.51-1.73-1.24-1.73-1.24-.12-.08-.33-.19-.46-.25l-1.3-.67-5.53,10.81,1.24,.64c.6,.3,1.18,.55,1.73,.74,.56,.18,1.09,.27,1.61,.26,.82-.07,1.62-.39,2.41-.96,.79-.58,1.51-1.51,2.16-2.79,.48-.99,.79-1.88,.93-2.67Z"/><path d="M103.34,210.78c-.03-.48-.02-.56-.03-.9-.02-.42-.15-.57-.57-.84-.17-.1-.35-.19-.54-.27-.31-.14-.66-.25-1.05-.32-.71-.13-1.38-.12-2.01,.02-.63,.14-1.19,.42-1.69,.84-.5,.42-.93,.98-1.29,1.68-.36,.7-.62,1.55-.8,2.52-.38,2.08-.23,3.69,.44,4.85s1.84,1.89,3.49,2.19c.48,.09,1.01,.12,1.58,.1,.49-.02,1.04-.09,1.68-.17,.33-.04,.36,.2,.36,.2l.04,.26s.03,.3-.22,.4c-.56,.21-1.2,.36-1.91,.46-.83,.11-1.73,.08-2.72-.1-.94-.17-1.8-.46-2.58-.86-.78-.41-1.41-.94-1.92-1.62-.5-.67-.85-1.49-1.04-2.45-.19-.96-.16-2.08,.07-3.37,.24-1.3,.63-2.38,1.18-3.25,.55-.86,1.22-1.54,2.01-2.03,.78-.49,1.66-.79,2.64-.92s2.01-.09,3.1,.11c.74,.14,1.42,.33,2.04,.59,.43,.18,.84,.36,1.22,.55,.53,.26,.39,.71,.39,.71l-.57,1.88s-.14,.41-.5,.35c-.32-.06-.52-.09-.52-.09,0,0-.25-.04-.28-.52Z"/><path d="M125.13,211.26c-.14-.46-.15-.54-.24-.87-.12-.4-.29-.52-.76-.68-.18-.06-.38-.11-.59-.14-.33-.06-.7-.08-1.09-.06-.73,.04-1.37,.21-1.95,.49-.57,.29-1.05,.69-1.44,1.22s-.67,1.18-.85,1.94c-.18,.77-.24,1.65-.18,2.64,.12,2.1,.65,3.64,1.58,4.61,.93,.96,2.23,1.4,3.91,1.3,.49-.03,1.01-.12,1.56-.28,.47-.13,.99-.33,1.59-.56,.31-.12,.4,.11,.4,.11l.09,.24s.1,.28-.12,.44c-.49,.34-1.08,.63-1.75,.9-.78,.3-1.66,.49-2.66,.55-.96,.06-1.86-.02-2.71-.23-.85-.21-1.6-.58-2.25-1.11s-1.18-1.25-1.59-2.13c-.41-.89-.65-1.99-.73-3.29-.08-1.32,.05-2.46,.38-3.43,.33-.97,.82-1.79,1.47-2.45s1.43-1.16,2.35-1.52c.92-.35,1.93-.57,3.04-.63,.75-.05,1.46-.02,2.12,.09,.46,.07,.9,.15,1.32,.24,.58,.13,.55,.6,.55,.6l-.11,1.96s-.03,.43-.4,.46c-.33,.02-.52,.03-.52,.03,0,0-.27,.02-.42-.44Z"/><path d="M146.39,206.78c-.24-.42-.26-.5-.42-.8-.2-.37-.39-.45-.88-.51-.19-.03-.4-.02-.61-.02-.34,.01-.7,.07-1.08,.17-.7,.19-1.3,.49-1.8,.89-.5,.4-.88,.89-1.15,1.49-.27,.6-.41,1.29-.42,2.08-.02,.79,.11,1.66,.37,2.62,.56,2.03,1.4,3.42,2.51,4.17,1.11,.75,2.48,.9,4.1,.45,.47-.13,.96-.33,1.46-.59,.43-.23,.9-.53,1.44-.88,.28-.18,.42,.02,.42,.02l.14,.22s.16,.25-.02,.45c-.41,.43-.92,.84-1.52,1.24-.7,.47-1.52,.83-2.49,1.1-.92,.25-1.82,.37-2.69,.34s-1.68-.23-2.43-.61c-.75-.39-1.41-.97-2-1.75s-1.06-1.81-1.4-3.06c-.35-1.27-.47-2.42-.35-3.44s.43-1.92,.92-2.7c.49-.78,1.15-1.44,1.98-1.98,.82-.53,1.77-.95,2.84-1.25,.72-.2,1.42-.32,2.09-.36,.47-.03,.92-.04,1.34-.04,.59,0,.66,.47,.66,.47l.31,1.94s.06,.43-.3,.53c-.32,.09-.51,.14-.51,.14,0,0-.27,.08-.51-.33Z"/><path d="M164.08,203.31l-6.31-2.86c-.13-.06-.35-.07-.49-.03l-.95,.29c-.14,.04-.31-.02-.38-.15l-.17-.29c-.07-.13-.03-.28,.1-.36l4.54-2.58c.12-.07,.28-.03,.36,.09l.17,.3c.07,.12,.04,.3-.06,.4l-.56,.52c-.11,.1-.09,.23,.04,.29l4.5,2.14,.55-5.02c.02-.14-.08-.23-.22-.18l-.79,.25c-.14,.04-.31-.02-.38-.15l-.17-.29c-.07-.13-.03-.29,.1-.36l3.6-2.05c.12-.07,.28-.03,.35,.1l.17,.29c.07,.12,.04,.3-.07,.4l-.82,.72c-.11,.09-.21,.29-.22,.43l-.7,6.39,6.99,3.25c.13,.06,.35,.07,.49,.03l.97-.3c.14-.04,.31,.02,.38,.15l.17,.29c.07,.12,.03,.28-.1,.35l-4.56,2.6c-.13,.07-.28,.03-.35-.1l-.17-.29c-.07-.13-.04-.31,.07-.4l.61-.55c.11-.1,.09-.23-.04-.29l-5.25-2.52-.64,5.88c-.02,.14,.08,.22,.22,.18l.75-.23c.14-.04,.31,.02,.38,.15l.17,.29c.07,.12,.03,.28-.1,.35l-3.62,2.06c-.12,.07-.28,.03-.35-.1l-.17-.29c-.07-.13-.04-.3,.07-.4l.82-.72c.11-.09,.21-.29,.23-.43l.84-7.25Z"/><path d="M179.72,184.11c.09,.11,.1,.29,.01,.4l-.68,.88c-.09,.11-.08,.3,.01,.4l7.57,8.58c.09,.11,.27,.14,.4,.06l.95-.56c.12-.07,.3-.05,.4,.06l.22,.25c.09,.11,.08,.27-.02,.37l-3.89,3.43c-.11,.09-.27,.09-.37-.02l-.22-.25c-.1-.11-.1-.29-.01-.4l.68-.88c.09-.11,.08-.29-.01-.4l-7.57-8.58c-.09-.11-.27-.14-.4-.06l-.95,.56c-.13,.07-.3,.04-.4-.06l-.22-.25c-.09-.11-.08-.27,.02-.37l3.89-3.43c.11-.1,.27-.08,.37,.02l.22,.25Z"/></g><path d="M50.72,49.71c.14,.02,.34-.04,.43-.14l2.16-2.27c.1-.11,.09-.27-.01-.37l-.24-.23c-.11-.1-.29-.11-.4-.03l-.82,.57c-.12,.08-.33,.13-.47,.11l-6.46-1.05c-.14-.02-.21-.15-.15-.28,0,0,.79-1.7,.76-2.59-.03-.89-.43-1.69-1.19-2.42-.54-.52-1.09-.82-1.64-.9-.55-.08-1.09-.02-1.62,.17s-1.03,.49-1.52,.88-1.18,1.07-1.18,1.07l-.37,.37-3.8,3.99c-.1,.11-.09,.27,.01,.37l.24,.23c.1,.1,.28,.11,.4,.03l.91-.66c.12-.08,.3-.07,.4,.03l8.31,7.91c.1,.1,.12,.28,.05,.4l-.61,.94c-.08,.12-.06,.3,.05,.4l.25,.23c.1,.1,.27,.09,.37-.01l3.56-3.74c.1-.1,.09-.27-.01-.37l-.25-.24c-.1-.1-.28-.11-.4-.03l-.9,.64c-.12,.08-.3,.07-.4-.03l-3.83-3.64,.57-.6c.1-.1,.3-.17,.44-.14l7.36,1.4Zm-8.83-1.45c-.1,.11-.17,.17-.17,.17l-4.13-3.91,.74-.77c.1-.11,.26-.27,.37-.37,0,0,.45-.44,.77-.68,.32-.23,.64-.39,.97-.46,.33-.07,.67-.05,1.02,.07,.35,.12,.71,.36,1.09,.71,.82,.78,1.21,1.54,1.16,2.28-.04,.74-.98,2.02-.98,2.02-.08,.12-.24,.3-.33,.4l-.51,.54Z"/></g></g></svg>