<?xml version="1.0" encoding="UTF-8"?><svg id="a" xmlns="http://www.w3.org/2000/svg" viewBox="0 0 23.18 33.28"><path d="M1.52,10.69c.84,0,1.52-.68,1.52-1.52s-.68-1.52-1.52-1.52-1.52,.68-1.52,1.52,.68,1.52,1.52,1.52Z" style="fill:#104897;"/><path d="M5.36,0V28.1H23.18V0H5.36Zm3.78,10.69c-.84,0-1.52-.68-1.52-1.52s.68-1.52,1.52-1.52,1.52,.68,1.52,1.52-.68,1.52-1.52,1.52Zm7.56,15.01c-.84,0-1.52-.68-1.52-1.52s.68-1.52,1.52-1.52,1.52,.68,1.52,1.52-.68,1.52-1.52,1.52Zm0-7.48c-.84,0-1.52-.68-1.52-1.52s.68-1.52,1.52-1.52,1.52,.68,1.52,1.52-.68,1.52-1.52,1.52Zm0-7.53c-.84,0-1.52-.68-1.52-1.52s.68-1.52,1.52-1.52,1.52,.68,1.52,1.52-.68,1.52-1.52,1.52Z" style="fill:#104897;"/><path d="M16.8,33.28c.84,0,1.52-.68,1.52-1.52s-.68-1.52-1.52-1.52-1.52,.68-1.52,1.52,.68,1.52,1.52,1.52Z" style="fill:#104897;"/></svg>