<?xml version="1.0" encoding="UTF-8"?><svg id="a" xmlns="http://www.w3.org/2000/svg" xmlns:xlink="http://www.w3.org/1999/xlink" viewBox="0 0 174.04 174.04"><defs><style>.c{fill:none;}.d{fill:#003349;}.e{clip-path:url(#b);}</style><clipPath id="b"><rect width="174.04" height="174.04" style="fill:none;"/></clipPath></defs><g style="clip-path:url(#b);"><path d="M57.01,152.04c-1.58-.74-2.3-2.48-1.52-4.15,.79-1.69,2.59-2.25,4.17-1.51,1.58,.74,2.32,2.49,1.53,4.18-.78,1.67-2.6,2.22-4.18,1.48" style="fill:#003349;"/><path d="M71.11,154.01l1.34-7.4,2.58,.47-1.3,7.14c-.38,2.12,.36,3.29,1.99,3.59,1.63,.3,2.74-.54,3.13-2.66l1.3-7.14,2.58,.47-1.34,7.4c-.62,3.41-2.98,4.81-6.08,4.25-3.09-.56-4.82-2.71-4.2-6.12" style="fill:#003349;"/><rect x="86.1" y="148.76" width="2.62" height="12.27" style="fill:#003349;"/><polygon points="92.09 148.46 102.66 146.63 103.06 148.89 99.06 149.58 100.82 159.71 98.22 160.16 96.46 150.03 92.48 150.73 92.09 148.46" style="fill:#003349;"/><path d="M117,152.05c-1.58,.73-3.38,.17-4.16-1.5-.79-1.69-.06-3.43,1.52-4.16,1.58-.74,3.4-.18,4.18,1.51,.78,1.67,.03,3.42-1.55,4.16" style="fill:#003349;"/><path d="M112.54,63.84h14.05c-.81-1.39-1.44-2.4-2.4-3.7h-9.7c-.55-1.07-1.49-2.58-1.49-2.58h9.15c-1.29-1.55-2.69-3.01-4.19-4.37h-10.85l-11.35,7.06,9.87,7.88,6.9-4.29Z" style="fill:#003349;"/><path d="M48.27,77.97c-.98,1.19-2.47,2.86-2.47,4.04,0,.64,.52,1.23,1.22,1.23h9.79l1.62,2.69h49.52l2.49-3.7h22.16c-.15-1.48-.38-2.94-.67-4.37h-11.73c-.13-.86-.29-1.84-.44-2.58h11.57c-.46-1.77-1.03-3.49-1.69-5.16h-25.66l-21.2-16.92h-26.53c-1.49,1.36-2.89,2.82-4.19,4.37h9.17c-.4,.64-1.1,1.85-1.49,2.58h-9.7c-.96,1.29-1.6,2.3-2.42,3.7h25.85l5.73,6.27h-16.08c-5.95,0-10.2,2.45-14.87,7.85m24.91-4.26c1.76,0,3.18,1.43,3.18,3.19s-1.43,3.18-3.18,3.18-3.19-1.43-3.19-3.18,1.43-3.19,3.19-3.19m-6.31,8.41h-6.8l-1.28-2.13h-7.52c2.5-3.43,6.71-6.28,10.35-6.28h5.25v8.41Z" style="fill:#003349;"/><path d="M132.33,93.89c.24-1.55,.4-3.12,.47-4.71h-36.89l-27.21,16.92h-23.11c.75,1.62,1.53,3.09,2.47,4.6h10.22c.43,1.03,1.25,2.59,1.25,2.59h-9.77c1.08,1.53,2.14,2.88,3.39,4.26h11.45l2.4,3.13h43.05l1.27-2.48h8.79c.64,0,1.13-.54,1.13-1.14,0-1.09-1.4-2.89-2.31-3.99-3.38-4.08-7.42-6.97-13.55-6.97h-9.12l6.71-6.16h28.01c.36-1.22,.62-2.25,.88-3.47h-11.71c.14-.98,.26-1.8,.35-2.58h11.83Zm-30.53,15.51h5.17c3.31,0,7.1,2.63,9.41,5.79h-6.92l-1.18,1.97h-6.48v-7.76Zm-3.12,3.19c0,1.76-1.43,3.19-3.19,3.19s-3.18-1.43-3.18-3.19,1.43-3.19,3.18-3.19,3.19,1.43,3.19,3.19" style="fill:#003349;"/><polygon points="46.1 148.68 37.65 142.13 39.04 140.33 42.24 142.8 48.51 134.7 50.59 136.32 44.32 144.41 47.5 146.87 46.1 148.68" style="fill:#003349;"/><polygon points="27.88 131.5 37.31 123.26 39.03 125.22 35.07 128.69 38.8 132.96 42.76 129.49 44.48 131.46 35.05 139.7 33.33 137.74 37.08 134.46 33.35 130.19 29.6 133.47 27.88 131.5" style="fill:#003349;"/><polygon points="20.89 120.1 22.87 118.95 25.84 124.09 28.2 122.72 25.51 118.06 27.43 116.95 30.13 121.61 32.7 120.11 29.73 114.98 31.73 113.82 35.99 121.18 25.15 127.46 20.89 120.1" style="fill:#003349;"/><path d="M15.41,104.94l10.86-7.87,.69,2.56-2.63,1.87,1.22,4.53,3.2,.28,.68,2.52-13.34-1.39-.67-2.5Zm7.79,.87l-.79-2.96-3.62,2.56,4.42,.4Z" style="fill:#003349;"/><path d="M21.36,93.44l4.66-.31,.17,2.58-12.49,.84-.34-5.15c-.18-2.63,1.11-4.47,3.67-4.64,1.99-.13,3.33,.88,3.87,2.6l4.62-3.62,.2,2.93-4.45,3.4,.09,1.36Zm-2.14,.14l-.16-2.4c-.09-1.3-.82-1.93-1.86-1.86-1.06,.07-1.71,.79-1.62,2.09l.16,2.4,3.48-.23Z" style="fill:#003349;"/><path d="M13.65,77.25c.15-1.36,.64-2.39,1.34-3.13l2.62,.3c-.94,.86-1.44,1.81-1.57,2.98-.25,2.23,1.18,3.87,3.63,4.15,2.43,.28,4.2-1,4.46-3.23,.13-1.18-.12-2.21-.84-3.26l2.62,.3c.52,.88,.76,2,.6,3.36-.41,3.61-3.28,5.89-7.13,5.45-3.85-.44-6.13-3.31-5.72-6.92" style="fill:#003349;"/><polygon points="14.87 70.6 17.98 60.37 20.17 61.04 18.99 64.9 28.79 67.89 28.02 70.4 18.22 67.42 17.05 71.26 14.87 70.6" style="fill:#003349;"/><rect x="24.43" y="52.36" width="2.61" height="12.52" transform="translate(-38.27 57.32) rotate(-65.13)" style="fill:#003349;"/><path d="M25.28,46.21c.73-1.15,1.62-1.87,2.58-2.23l2.22,1.41c-1.22,.36-2.08,.99-2.72,1.99-1.2,1.89-.63,4,1.45,5.32,2.06,1.31,4.21,.94,5.42-.95,.64-1,.86-2.04,.67-3.3l2.22,1.41c.08,1.02-.19,2.13-.93,3.28-1.95,3.06-5.52,3.86-8.79,1.78-3.27-2.08-4.06-5.66-2.11-8.72" style="fill:#003349;"/><path d="M38.34,41.69l-5.07-5.51,1.92-1.77,4.89,5.32c1.45,1.58,2.83,1.69,4.05,.58,1.22-1.12,1.22-2.51-.23-4.08l-4.89-5.32,1.92-1.77,5.07,5.51c2.33,2.54,2.03,5.26-.28,7.38-2.3,2.11-5.05,2.2-7.38-.34" style="fill:#003349;"/><polygon points="60.19 31.66 58.42 32.71 49.06 28.58 53.34 35.75 51.18 37.03 44.76 26.28 46.86 25.03 55.67 28.99 51.61 22.19 53.76 20.9 60.19 31.66" style="fill:#003349;"/><rect x="60.15" y="18.21" width="2.61" height="12.53" transform="translate(-4.69 25.12) rotate(-22.27)" style="fill:#003349;"/><polygon points="70.61 27.94 62.96 16.97 65.63 16.28 71.02 24.26 71.92 14.68 74.52 14.01 73.06 27.31 70.61 27.94" style="fill:#003349;"/><polygon points="86.43 13.07 86.59 15.35 80.66 15.75 80.85 18.48 86.22 18.12 86.37 20.33 81 20.7 81.2 23.67 87.12 23.27 87.28 25.57 78.79 26.14 77.95 13.65 86.43 13.07" style="fill:#003349;"/><path d="M92.57,21.25l-.52,4.64-2.58-.29,1.4-12.45,5.13,.58c2.62,.29,4.2,1.89,3.92,4.44-.22,1.99-1.46,3.12-3.25,3.35l2.74,5.2-2.92-.33-2.56-4.99-1.36-.15Zm.24-2.13l2.39,.27c1.3,.15,2.04-.47,2.16-1.5,.12-1.05-.47-1.82-1.77-1.96l-2.39-.27-.39,3.47Z" style="fill:#003349;"/><path d="M101.73,23.82c.83,1.13,2.04,2.07,3.43,2.49,1.21,.37,2.24,.27,2.52-.66,.24-.78-.18-1.23-.98-1.83l-1.58-1.12c-1.6-1.12-2.49-2.4-1.89-4.39,.68-2.23,2.96-2.86,5.3-2.15,1.46,.44,2.55,1.16,3.35,2.04l-.74,2.44c-.8-1.07-1.79-1.91-3.18-2.33-1.07-.33-2.01-.2-2.26,.62-.22,.74,.17,1.18,.93,1.71l1.68,1.21c1.81,1.29,2.39,2.67,1.85,4.44-.72,2.36-3.09,2.95-5.63,2.18-1.6-.49-2.87-1.38-3.56-2.19l.75-2.46Z" style="fill:#003349;"/><rect x="108.58" y="24.12" width="12.53" height="2.61" transform="translate(44.41 119.64) rotate(-65.7)" style="fill:#003349;"/><polygon points="121.23 21.36 130.33 26.98 129.13 28.92 125.69 26.8 120.31 35.51 118.07 34.13 123.45 25.42 120.03 23.3 121.23 21.36" style="fill:#003349;"/><polygon points="138.49 33.98 140.54 35.81 131.97 38.58 128.81 42.13 126.88 40.4 130.04 36.86 131.85 28.06 133.97 29.95 132.7 35.93 138.49 33.98" style="fill:#003349;"/><path d="M138.59,54.2c-1.88-2.94-.88-6.46,2.27-8.47,3.16-2.02,6.76-1.43,8.64,1.51,1.88,2.94,.91,6.47-2.26,8.49-3.15,2.01-6.77,1.42-8.65-1.53m8.95-5.71c-1.06-1.67-3.18-1.84-5.25-.52-2.06,1.32-2.8,3.31-1.74,4.98,1.07,1.69,3.21,1.88,5.27,.56,2.07-1.32,2.79-3.33,1.71-5.02" style="fill:#003349;"/><polygon points="142.58 60.74 154.21 56.1 157.3 63.85 155.18 64.69 153.05 59.35 150.09 60.53 152.06 65.47 149.96 66.31 147.99 61.37 143.54 63.14 142.58 60.74" style="fill:#003349;"/><polygon points="148.54 84.94 148.29 82.89 155.88 76.04 147.6 77.02 147.3 74.53 159.74 73.05 160.03 75.48 152.82 81.91 160.68 80.97 160.97 83.46 148.54 84.94" style="fill:#003349;"/><path d="M147.91,92.42c.31-3.47,3.24-5.65,6.96-5.32,3.74,.33,6.23,2.98,5.92,6.46-.31,3.47-3.22,5.67-6.96,5.35-3.72-.33-6.23-3.01-5.92-6.48m10.57,.93c.17-1.97-1.4-3.4-3.84-3.61-2.44-.22-4.24,.92-4.41,2.89-.18,1.99,1.39,3.44,3.83,3.66,2.44,.22,4.24-.94,4.41-2.93" style="fill:#003349;"/><path d="M150.91,103.73l-4.48-1.31,.73-2.49,12.02,3.52-1.45,4.95c-.74,2.53-2.58,3.81-5.05,3.09-1.92-.56-2.82-1.97-2.74-3.78l-5.59,1.81,.83-2.82,5.35-1.66,.38-1.31Zm2.06,.6l-.68,2.31c-.37,1.25,.11,2.09,1.11,2.39,1.02,.3,1.87-.15,2.24-1.4l.68-2.31-3.35-.98Z" style="fill:#003349;"/><polygon points="151.07 123.81 142.66 121.6 149.02 127.5 147.77 129.75 138.41 120.8 139.57 118.72 147.86 120.81 141.72 114.87 142.88 112.78 155.41 116.02 154.13 118.32 145.78 116 152.06 122.03 151.07 123.81" style="fill:#003349;"/><path d="M141.43,136.97l-12.55-4.73,1.76-1.99,3,1.16,3.11-3.51-1.53-2.83,1.73-1.95,6.19,11.9-1.72,1.94Zm-3.57-6.98l-2.03,2.29,4.13,1.62-2.1-3.91Z" style="fill:#003349;"/><polygon points="130.46 146.81 128.3 148.52 127.04 139.6 124.09 135.88 126.12 134.27 129.07 138 137.43 141.29 135.21 143.05 129.53 140.78 130.46 146.81" style="fill:#003349;"/><path d="M67.45,103.8l12.57-7.74-11.07-6.89h-27.48c.08,1.52,.23,3.24,.46,4.71h11.83c.13,1.15,.35,2.58,.35,2.58h-11.71c.26,1.22,.53,2.29,.88,3.47h17.96l6.22,3.87Z" style="fill:#003349;"/></g></svg>