<?xml version="1.0" encoding="UTF-8"?><svg id="a" xmlns="http://www.w3.org/2000/svg" viewBox="0 0 83.95 84.58"><path d="M79.65,61.46c.12-.23,.27-.46,.39-.71h-23.09c-5.84,0-11.12-2.36-14.95-6.19-3.83,3.81-9.1,6.19-14.93,6.19H3.92c.11,.23,.27,.44,.37,.69,.44,.85,.9,1.68,1.4,2.5,.27,.46,.53,.92,.83,1.37,.57,.89,1.19,1.72,1.83,2.55,.2,.27,.37,.55,.59,.82H27.03c5.84,0,11.12-2.36,14.93-6.19,3.83,3.83,9.12,6.19,14.95,6.19h18.09c.19-.25,.37-.53,.57-.78,.64-.83,1.26-1.7,1.84-2.59,.3-.44,.57-.92,.83-1.38,.37-.62,.76-1.24,1.1-1.9,.11-.19,.18-.39,.28-.59M27.03,29.03c5.84,0,11.12-2.36,14.93-6.19,3.83,3.83,9.12,6.19,14.95,6.19h25.22c-.14-.44-.34-.85-.5-1.28-.3-.8-.59-1.6-.92-2.38-.25-.57-.53-1.14-.82-1.68-.19-.39-.35-.78-.57-1.17-.16-.3-.34-.6-.5-.9-.09-.16-.16-.34-.27-.51h-21.67c-5.83,0-11.12-2.36-14.95-6.19-3.83,3.83-9.1,6.19-14.93,6.19H5.36c-.11,.18-.18,.35-.27,.53-.37,.67-.71,1.35-1.05,2.04-.28,.57-.57,1.12-.82,1.7-.34,.76-.62,1.56-.92,2.36-.16,.44-.35,.85-.5,1.29H27.03Z" style="fill:#0443aa;"/><path d="M41.98,36.06c3.83,3.83,9.12,6.19,14.95,6.19h27.35c0-1.4-.07-2.78-.21-4.13-.05-.51-.14-1.01-.21-1.51-.11-.76-.18-1.53-.32-2.27h-26.59c-5.83,0-11.12-2.36-14.95-6.19-3.83,3.81-9.12,6.19-14.95,6.19H.43c-.14,.76-.23,1.54-.34,2.31-.07,.48-.16,.96-.21,1.45-.14,1.37-.21,2.75-.21,4.15H27.03c5.84,0,11.12-2.36,14.95-6.19Z" style="fill:#0443aa;"/><path d="M41.98,49.29c3.83,3.81,9.12,6.19,14.95,6.19h25.24c.04-.09,.05-.19,.07-.28,.19-.62,.35-1.26,.53-1.9,.18-.69,.39-1.38,.53-2.08,.14-.64,.23-1.29,.34-1.93,.09-.57,.23-1.14,.3-1.72h-27.01c-5.84,0-11.12-2.36-14.95-6.19-3.83,3.81-9.12,6.19-14.95,6.19H0c.07,.59,.2,1.13,.3,1.7,.11,.66,.2,1.31,.34,1.95,.16,.71,.35,1.42,.55,2.11,.18,.62,.32,1.26,.51,1.86,.04,.09,.05,.19,.07,.28H27.03c5.84,0,11.12-2.36,14.95-6.19Zm14.95,24.69c-5.83,0-11.12-2.36-14.95-6.19-3.83,3.83-9.12,6.19-14.95,6.19H13.98c.18,.16,.37,.3,.55,.44,.46,.39,.94,.78,1.42,1.15,.55,.43,1.1,.85,1.67,1.26,.5,.35,.99,.69,1.51,1.01,.6,.39,1.21,.75,1.81,1.1,.51,.3,1.05,.59,1.58,.87,.64,.34,1.29,.64,1.95,.94,.53,.25,1.08,.5,1.63,.71,.69,.28,1.4,.53,2.13,.78,.55,.2,1.08,.39,1.63,.55,.76,.23,1.54,.41,2.32,.6,.53,.12,1.05,.27,1.58,.37,.89,.18,1.77,.28,2.68,.41,.46,.05,.9,.14,1.37,.19,1.37,.14,2.75,.21,4.15,.21s2.78-.07,4.17-.21c.46-.04,.9-.12,1.35-.19,.9-.12,1.81-.23,2.7-.41,.53-.11,1.05-.25,1.58-.37,.78-.18,1.58-.37,2.34-.6,.55-.16,1.08-.35,1.63-.55,.71-.25,1.44-.5,2.13-.78,.55-.21,1.08-.46,1.61-.71,.66-.3,1.31-.62,1.97-.94,.53-.28,1.05-.57,1.56-.87,.62-.35,1.22-.73,1.83-1.12,.51-.32,1.01-.66,1.49-1.01,.57-.41,1.13-.83,1.68-1.26,.48-.37,.96-.74,1.4-1.13,.18-.16,.39-.3,.57-.46h-13.04l.02,.02ZM41.98,9.63c3.83,3.83,9.12,6.19,14.95,6.19h18s-.07-.11-.12-.16c-1.84-2.29-3.94-4.36-6.21-6.21-.35-.28-.73-.55-1.1-.82-.8-.6-1.6-1.21-2.45-1.76-.46-.3-.96-.59-1.44-.87-.78-.46-1.58-.92-2.38-1.33-.53-.27-1.06-.53-1.61-.78-.82-.37-1.63-.73-2.47-1.05-.57-.21-1.12-.43-1.7-.62-.87-.3-1.76-.55-2.66-.78-.57-.14-1.12-.3-1.68-.43-.99-.21-2-.37-3.02-.53-.5-.07-.99-.18-1.49-.23-1.53-.16-3.07-.27-4.65-.27s-3.12,.11-4.65,.27c-.5,.05-.98,.16-1.47,.23-1.03,.14-2.04,.3-3.03,.53-.57,.12-1.12,.28-1.67,.43-.9,.25-1.81,.5-2.7,.8-.57,.2-1.12,.39-1.65,.6-.85,.32-1.7,.69-2.52,1.06-.51,.25-1.05,.48-1.56,.74-.83,.43-1.65,.89-2.47,1.38-.46,.27-.92,.53-1.37,.83-.87,.57-1.7,1.19-2.54,1.81-.34,.25-.67,.5-1.01,.76-2.29,1.84-4.36,3.94-6.23,6.23-.04,.05-.09,.11-.12,.16H27.03c5.84,0,11.12-2.36,14.95-6.19" style="fill:#0443aa;"/></svg>